<svg width="139" height="51" viewBox="0 0 139 51" fill="none" xmlns="http://www.w3.org/2000/svg">
<path d="M79.9303 26.181C80.0201 25.9828 80.0948 25.8244 80.1651 25.6636C81.137 23.4449 82.1081 21.2255 83.0801 19.006C83.1717 18.797 83.2561 18.5831 83.3664 18.3825C83.5878 17.9779 83.9711 17.7996 84.4398 17.8013C84.8826 17.8038 85.2383 17.9837 85.4455 18.3651C85.5433 18.5467 85.6243 18.7365 85.707 18.9239C86.6852 21.1409 87.6589 23.3587 88.6442 25.5732C88.7331 25.7739 88.7518 26.0234 89.0239 26.1669C89.3281 25.3005 89.6286 24.4432 89.9283 23.5859C90.7918 21.1135 91.6544 18.6412 92.5187 16.1688C92.5792 15.9972 92.6272 15.8181 92.7144 15.6581C92.9723 15.183 93.5565 14.9326 94.0536 15.0694C94.6219 15.2253 94.9714 15.6987 94.9136 16.2575C94.8975 16.4126 94.8442 16.5668 94.7917 16.716C93.2862 21.0149 91.7789 25.3121 90.2707 29.6101C90.2253 29.7386 90.1862 29.8713 90.1204 29.9915C89.714 30.731 88.6389 30.7974 88.1436 30.1084C88.0235 29.9417 87.9497 29.7452 87.8661 29.557C86.8097 27.175 85.755 24.7922 84.6994 22.4094C84.6283 22.2486 84.55 22.0894 84.4424 21.8589C84.3242 22.0778 84.2281 22.2295 84.157 22.3912C83.113 24.7533 82.0725 27.117 81.0294 29.4799C80.9467 29.6681 80.864 29.8572 80.7626 30.0371C80.5483 30.4176 80.1757 30.5859 79.7418 30.5801C79.2767 30.5743 78.9014 30.372 78.6915 29.9633C78.6293 29.8414 78.5884 29.7096 78.543 29.5811C77.0491 25.3029 75.556 21.024 74.0629 16.745C74.0255 16.6372 73.9882 16.5295 73.9597 16.4192C73.8139 15.8529 74.1198 15.3007 74.6872 15.0993C75.2127 14.9127 75.8281 15.1291 76.1153 15.6208C76.2185 15.7974 76.2852 15.9947 76.3528 16.1879C77.4314 19.2845 78.5066 22.382 79.5879 25.4787C79.6671 25.7051 79.6902 25.9637 79.9321 26.1793L79.9303 26.181Z" fill="#050505"/>
<path d="M60.4544 23.9255C60.4367 24.4321 60.611 24.8101 60.7817 25.1807C61.518 26.7751 62.7576 27.8587 64.5931 28.2501C66.8003 28.721 69.0136 28.0022 70.2817 26.2395C70.376 26.1077 70.4614 25.9684 70.5716 25.8498C70.9603 25.432 71.5979 25.3408 72.0878 25.6226C72.5858 25.9095 72.7912 26.4708 72.5654 26.9849C72.4925 27.1498 72.3813 27.3032 72.2701 27.4508C70.8882 29.2715 69.0243 30.3352 66.6295 30.545C64.2498 30.7531 62.1663 30.1188 60.434 28.5701C59.3011 27.5569 58.5754 26.3125 58.2259 24.8897C57.7039 22.7623 57.9138 20.7011 59.0227 18.7611C60.0569 16.952 61.6398 15.7614 63.7919 15.2639C67.5134 14.405 71.468 16.0433 72.8535 20.013C73.155 20.8777 73.3115 21.7715 73.3061 22.6843C73.3017 23.4778 72.8695 23.8824 72.0069 23.9122C71.8371 23.918 71.6672 23.9139 71.4974 23.9139C68.0737 23.9139 64.65 23.9139 61.2263 23.9139C60.9871 23.9139 60.7488 23.9213 60.4553 23.9263L60.4544 23.9255ZM70.8144 21.6488C70.4703 18.9683 68.2853 17.1393 65.5553 17.2065C62.8999 17.272 60.5887 19.2859 60.4607 21.6438C60.9987 21.7267 70.0825 21.7358 70.8144 21.6488Z" fill="#060505"/>
<path d="M108.108 29.023C107.799 29.2245 107.607 29.3571 107.408 29.4807C105.6 30.6041 103.634 30.8976 101.569 30.3081C99.3297 29.6689 97.9549 28.1865 97.2488 26.1411C97.0327 25.5151 96.9118 24.8668 96.9118 24.2043C96.9109 21.5545 96.9064 18.9039 96.9109 16.2541C96.9118 15.6199 97.1679 15.2758 97.7183 15.1067C98.404 14.8952 99.1376 15.3065 99.2434 15.9739C99.2719 16.1513 99.2577 16.3354 99.2577 16.5169C99.2577 18.9404 99.263 21.3638 99.255 23.7873C99.2523 24.4514 99.3332 25.1014 99.5831 25.7216C100.123 27.0605 101.099 28.009 102.625 28.2934C104.447 28.6325 105.984 28.0928 107.135 26.7098C107.847 25.855 108.125 24.8568 108.126 23.7865C108.13 22.0196 108.127 20.2528 108.127 18.486C108.127 17.7382 108.119 16.9912 108.133 16.2442C108.136 16.046 108.165 15.8329 108.248 15.6539C108.447 15.2302 108.976 14.9823 109.446 15.0519C109.978 15.1307 110.387 15.4988 110.463 15.9863C110.487 16.1422 110.478 16.303 110.478 16.4614C110.478 20.6972 110.478 24.9323 110.478 29.1681C110.478 29.3265 110.486 29.4873 110.462 29.6432C110.375 30.1896 109.887 30.5867 109.308 30.5941C108.694 30.6024 108.205 30.1929 108.133 29.6017C108.115 29.45 108.118 29.2958 108.106 29.0238L108.108 29.023Z" fill="#050505"/>
<path d="M44.629 16.5294C44.9376 16.473 45.0967 16.2881 45.287 16.167C46.4662 15.4167 47.777 15.0279 49.1918 15.0453C51.8872 15.0776 53.872 16.2284 55.0797 18.4877C55.5723 19.4105 55.8186 20.4012 55.824 21.4368C55.8311 22.886 55.8311 24.3361 55.832 25.7854C55.8329 26.8955 55.832 28.0049 55.832 29.115C55.832 29.2958 55.8391 29.479 55.8151 29.6581C55.7484 30.1497 55.3322 30.5237 54.804 30.585C54.2927 30.6447 53.7707 30.3595 53.6061 29.8853C53.5261 29.6548 53.5092 29.3978 53.5083 29.1523C53.5012 27.0008 53.5048 24.8493 53.5039 22.697C53.5039 22.2443 53.5012 21.7908 53.4923 21.3381C53.4825 20.8589 53.3687 20.3971 53.2015 19.9444C52.1237 17.0235 48.5702 16.4398 46.3213 18.1992C45.1937 19.0813 44.6761 20.2487 44.6201 21.6009C44.5961 22.1888 44.6148 22.7783 44.6148 23.3677C44.6148 25.2473 44.6148 27.1277 44.6148 29.0072C44.6148 29.2112 44.6228 29.416 44.6005 29.6183C44.5436 30.1489 44.1283 30.5261 43.5556 30.585C43.0434 30.6372 42.5463 30.3404 42.3782 29.8579C42.3196 29.6896 42.2964 29.5047 42.2911 29.3256C42.2787 28.9185 42.2866 28.5106 42.2866 28.1027C42.2866 24.2748 42.2866 20.4468 42.2866 16.6197C42.2866 16.4158 42.2724 16.2093 42.3018 16.0087C42.3827 15.4524 42.8691 15.0453 43.4347 15.0387C44.0412 15.032 44.5356 15.4499 44.6068 16.0361C44.6254 16.1853 44.6219 16.337 44.6308 16.5277L44.629 16.5294Z" fill="#060505"/>
<path d="M117.586 30.5989C116.546 30.5575 115.599 30.3925 114.721 29.9638C113.86 29.5443 113.165 28.9606 112.701 28.1589C112.599 27.9831 112.516 27.7858 112.482 27.5893C112.388 27.0678 112.702 26.5853 113.224 26.3996C113.723 26.2221 114.256 26.3739 114.578 26.7868C114.621 26.8415 114.66 26.9003 114.691 26.9609C115.056 27.6656 115.69 28.0544 116.473 28.2485C117.313 28.4566 118.162 28.4615 118.981 28.1755C119.957 27.8347 120.643 27.2179 120.751 26.2081C120.867 25.1078 120.425 24.593 119.651 24.2622C119.125 24.0375 118.567 23.8725 118.013 23.7125C117.341 23.5185 116.652 23.3775 115.984 23.176C115.502 23.0301 115.027 22.851 114.574 22.638C112.543 21.6828 112.122 19.7826 112.641 18.2065C113.181 16.5648 114.434 15.6048 116.177 15.1968C117.406 14.9091 118.637 14.9871 119.828 15.4116C120.834 15.7697 121.642 16.3609 122.184 17.243C122.256 17.3608 122.333 17.4777 122.385 17.6037C122.606 18.1343 122.4 18.679 121.884 18.9502C121.366 19.2221 120.756 19.116 120.376 18.6848C120.329 18.6326 120.288 18.5762 120.255 18.5165C119.791 17.6949 119.003 17.3492 118.069 17.2339C117.327 17.1427 116.607 17.2406 115.961 17.6037C115.145 18.063 114.731 18.7354 114.833 19.6482C114.879 20.0595 115.076 20.3886 115.453 20.5959C115.743 20.7551 116.052 20.9002 116.371 20.9939C117.041 21.1912 117.726 21.3421 118.4 21.5295C119.003 21.6969 119.604 21.8744 120.196 22.0734C120.49 22.172 120.771 22.3138 121.043 22.4614C122.675 23.3551 123.296 24.743 123.097 26.4302C122.878 28.2866 121.717 29.5211 119.883 30.22C119.246 30.4621 118.224 30.613 117.588 30.5989H117.586Z" fill="#060505"/>
<path d="M38.9518 21.0318C38.9205 21.4308 38.9031 21.8306 38.8553 22.2268C38.7423 23.1586 38.5548 24.0767 38.3187 24.9846C38.3077 25.0277 38.2819 25.0662 38.2626 25.1066C38.0669 25.0635 37.9199 24.9415 37.783 24.8067C37.6057 24.6315 37.4292 24.4564 37.2547 24.2793C37.149 24.172 37.0323 24.0877 36.8779 24.0693C36.9505 23.7107 37.0213 23.3521 37.0966 22.9935C37.296 22.0498 37.4329 21.0988 37.4449 20.1312C37.4458 20.0404 37.4669 19.9505 37.4789 19.8607C37.5661 19.8515 37.6295 19.8928 37.6911 19.9505C38.0237 20.2624 38.36 20.5714 38.6927 20.8832C38.768 20.9539 38.8351 21.0346 38.9518 21.0318Z" fill="#ED903A"/>
<path d="M38.9513 21.0317C38.8346 21.0344 38.7675 20.9537 38.6922 20.8831C38.3587 20.5713 38.0233 20.2622 37.6906 19.9504C37.6291 19.8926 37.5657 19.8504 37.4784 19.8605C37.4683 19.8165 37.449 19.7716 37.4499 19.7275C37.4573 18.9113 37.3709 18.1015 37.2707 17.2926C37.2533 17.1477 37.2606 16.9927 37.2919 16.8505C37.3828 16.4433 37.7026 16.2406 38.0573 16.2214C38.3734 16.204 38.7455 16.3819 38.8732 16.7872C38.8971 16.8634 38.9192 16.9422 38.9274 17.022C38.9596 17.3412 38.9954 17.6603 39.0138 17.9813C39.0377 18.4161 39.0625 18.8526 39.0588 19.2873C39.0542 19.8147 39.0202 20.342 38.9963 20.8684C38.9936 20.9235 38.9678 20.9776 38.9522 21.0317H38.9513Z" fill="#F39D3B"/>
<path d="M23.9371 0.989014C24.3064 1.07247 24.6813 1.13667 25.0452 1.24122C27.1971 1.85753 29.2067 2.77832 31.0324 4.07972C33.3626 5.74154 35.2536 7.80415 36.6347 10.3152C37.2016 11.3461 37.6233 12.4393 37.9348 13.5738C38.0019 13.8177 37.9927 14.0479 37.8659 14.2726C37.6197 14.7092 37.0013 14.7349 36.7109 14.412C36.5685 14.2534 36.4895 14.0654 36.4105 13.8737C36.2019 13.3638 36.0052 12.8483 35.7792 12.3448C35.1682 10.9847 34.3789 9.73195 33.426 8.58463C31.6692 6.46974 29.5292 4.8556 27.0226 3.72571C26.7083 3.58447 26.3876 3.45699 26.0706 3.32309C26.0872 3.22312 26.0431 3.14792 25.9741 3.08005C25.5689 2.67744 25.1646 2.27298 24.7604 1.86945C24.7365 1.84561 24.7116 1.81993 24.6822 1.80342C24.4204 1.65026 24.2458 1.40264 24.0271 1.20454C23.9646 1.14768 23.9334 1.07614 23.9371 0.990847V0.989014Z" fill="#F7A83C"/>
<path d="M21.3086 3.98553C21.5833 4.00938 21.859 4.01947 22.131 4.05891C23.3163 4.23316 24.475 4.5083 25.5996 4.93017C27.1534 5.51346 28.5721 6.3297 29.8511 7.38348C31.155 8.45743 32.2815 9.69554 33.2123 11.1079C34.2874 12.7386 35.0151 14.5123 35.4157 16.4217C35.4718 16.6904 35.5048 16.9637 35.5489 17.2343C35.4883 17.2059 35.4157 17.1894 35.3688 17.1462C34.948 16.7556 34.5309 16.3612 34.1137 15.9668C34.0549 15.9118 34.0053 15.8448 33.94 15.799C33.8022 15.7027 33.6818 15.5633 33.4889 15.578C33.3474 15.19 33.2141 14.7984 33.0635 14.4132C32.4543 12.8541 31.5859 11.4546 30.4512 10.2211C29.2061 8.86738 27.7543 7.78793 26.1105 6.9671C25.244 6.53422 24.339 6.19947 23.3944 5.97294C23.2942 5.9491 23.1959 5.91608 23.0967 5.88765C23.0829 5.82253 23.0829 5.74916 23.0507 5.69505C23.0112 5.6281 22.9469 5.57491 22.8881 5.51988C22.515 5.16862 22.142 4.81737 21.7653 4.46886C21.6486 4.36064 21.519 4.26618 21.4051 4.15612C21.3601 4.11302 21.3408 4.0424 21.3095 3.98462L21.3086 3.98553Z" fill="#F39D3B"/>
<path d="M18.2557 10.7095C18.9816 10.5591 19.7121 10.5215 20.4527 10.5793C21.1327 10.6324 21.8007 10.7416 22.4567 10.9223C24.4773 11.4799 26.0889 12.6208 27.3092 14.3184C28.0424 15.3382 28.5965 16.4433 28.8749 17.6732C29.0844 18.5977 29.1891 19.5322 29.044 20.4796C28.9484 20.4842 28.8666 20.4613 28.7931 20.3925C28.4678 20.0871 28.1389 19.7853 27.8118 19.4808C27.753 19.4258 27.7024 19.3598 27.6381 19.3139C27.5848 19.2763 27.5159 19.2607 27.4544 19.2351C27.4121 18.9865 27.3735 18.738 27.3276 18.4904C27.141 17.4742 26.7946 16.5185 26.2203 15.6546C25.1324 14.0157 23.6338 12.9399 21.729 12.4392C21.0592 12.2631 20.3737 12.187 19.679 12.2246C19.646 12.2264 19.612 12.2145 19.578 12.209C19.5614 12.1329 19.5706 12.032 19.5247 11.9834C19.2793 11.7275 19.0239 11.4808 18.7648 11.2377C18.615 11.0974 18.4496 10.9745 18.2971 10.837C18.2686 10.8104 18.2677 10.7535 18.2539 10.7104L18.2557 10.7095Z" fill="#E88539"/>
<path d="M17.0126 14.6752C17.4417 14.3744 17.926 14.1964 18.4258 14.0616C19.0075 13.9048 19.5992 13.8599 20.2038 13.9002C20.7827 13.9397 21.3469 14.0341 21.8927 14.2203C22.9576 14.5844 23.8241 15.2264 24.5049 16.1197C25.0994 16.8992 25.5212 17.7558 25.6949 18.7289C25.8446 19.5708 25.7812 20.3989 25.5681 21.2207C25.5194 21.4096 25.4569 21.5949 25.3953 21.7801C25.3668 21.8673 25.3319 21.9535 25.2906 22.0342C25.0452 22.5166 24.6014 22.5799 24.1769 22.4001C23.9601 22.3084 23.8342 22.136 23.7947 21.903C23.7515 21.6499 23.7754 21.4004 23.8397 21.1528C23.9059 20.8979 23.9766 20.642 24.0225 20.3824C24.4048 18.2272 22.9447 16.0655 20.745 15.6372C19.9833 15.4887 19.2344 15.5345 18.5003 15.795C18.4249 15.8216 18.3468 15.8408 18.2705 15.8638C18.2522 15.7354 18.2145 15.607 18.1033 15.5373C17.8663 15.3878 17.699 15.1649 17.4978 14.9788C17.3535 14.8467 17.2093 14.7192 17.0117 14.6733L17.0126 14.6752Z" fill="#E37737"/>
<path d="M29.7374 15.0959C29.6097 14.8657 29.4848 14.6337 29.3552 14.4044C28.5999 13.0755 27.5827 11.9777 26.3846 11.0367C25.5705 10.3975 24.6599 9.94078 23.7006 9.56935C23.5398 9.50699 23.3772 9.44829 23.22 9.37859C23.1162 9.33181 23.0105 9.28046 22.9214 9.20984C22.6494 8.99523 22.5529 8.66323 22.6549 8.34407C22.7579 8.02308 23.0262 7.81123 23.368 7.77913C23.5563 7.7617 23.7337 7.80756 23.9083 7.86809C24.9796 8.23677 25.994 8.72101 26.9258 9.36942C28.5457 10.4966 29.8835 11.8842 30.8511 13.6129C31.4217 14.6328 31.8186 15.7196 32.086 16.855C32.0989 16.91 32.0952 16.9687 32.0989 17.0256C31.9739 17.0393 31.883 16.9843 31.7957 16.8999C31.2287 16.3524 30.6591 15.8085 30.0894 15.2638C30.0646 15.2399 30.0388 15.217 30.0168 15.1913C29.9414 15.1051 29.8449 15.0849 29.7365 15.0968L29.7374 15.0959Z" fill="#EE933A"/>
<path d="M22.1806 39.549C21.8811 39.8828 21.587 40.2212 21.281 40.5487C19.8237 42.1041 18.2838 43.5733 16.6767 44.9719C15.7486 45.7799 14.7894 46.554 13.8439 47.3427C13.8181 47.3638 13.7851 47.3776 13.7557 47.395C13.7198 47.3675 13.6803 47.3436 13.6482 47.3115C13.4368 47.1024 13.2246 46.8942 13.0178 46.6815C12.8864 46.5476 12.7468 46.4375 12.5483 46.4283C12.5189 46.4265 12.4913 46.3962 12.4619 46.3788C12.8919 46.0147 13.3164 45.6451 13.752 45.2883C15.8929 43.5376 17.9006 41.6437 19.8219 39.6572C20.1738 39.294 20.5156 38.9217 20.862 38.553C21.0568 38.542 21.202 38.6227 21.3399 38.7621C21.61 39.0336 21.8985 39.2876 22.1797 39.549H22.1806Z" fill="#C22A30"/>
<path d="M23.8714 42.6453C23.8604 42.6655 23.8539 42.6902 23.8383 42.704C23.3973 43.0708 23.0665 43.5431 22.6456 43.9302C22.2312 44.3117 21.8389 44.718 21.4328 45.1096C21.0184 45.5085 20.6012 45.9047 20.1804 46.2982C19.7678 46.6834 19.358 47.0713 18.9335 47.4409C18.0826 48.182 17.2244 48.9129 16.3653 49.6429C16.2348 49.7539 16.0906 49.8557 15.938 49.9309C15.6201 50.0868 15.2406 49.9942 14.9907 49.742C14.7674 49.5173 14.6856 48.901 14.976 48.6323C15.0688 48.546 15.1589 48.4571 15.2553 48.3755C15.9601 47.783 16.6676 47.1942 17.3714 46.5999C18.5954 45.5672 19.7375 44.4474 20.8759 43.323C21.4493 42.7572 22.008 42.1766 22.574 41.6034C22.63 41.5466 22.6925 41.497 22.7522 41.4438C23.0683 41.7511 23.3844 42.0574 23.6987 42.3646C23.7786 42.4435 23.8714 42.515 23.8714 42.6444V42.6453Z" fill="#C12930"/>
<path d="M10.2224 27.9534C9.99448 28.2121 9.77304 28.4762 9.53781 28.7284C7.76167 30.6323 5.84954 32.3914 3.84369 34.0514C3.56896 34.2788 3.30525 34.5191 3.03419 34.7502C2.77967 34.9676 2.5086 35.1583 2.18976 35.2766C2.01794 35.3408 1.85254 35.3445 1.6844 35.2895C1.13125 35.1097 0.931855 34.421 1.31226 33.9688C1.45192 33.8028 1.6118 33.6469 1.78639 33.5194C2.79069 32.7839 3.71414 31.9521 4.65044 31.1358C6.0912 29.8794 7.45478 28.5431 8.73657 27.1253C8.78987 27.0666 8.85143 27.0143 8.90931 26.9593C9.06092 26.9483 9.16292 27.029 9.26767 27.128C9.54149 27.3866 9.82265 27.637 10.1029 27.8874C10.136 27.9167 10.1819 27.9314 10.2224 27.9534Z" fill="#C22A30"/>
<path d="M7.40674 41.8762C7.77336 41.58 8.1409 41.2846 8.5066 40.9884C10.6117 39.2835 12.6313 37.485 14.5278 35.5499C14.8016 35.2702 15.0654 34.9813 15.3364 34.6979C15.4072 34.6245 15.4862 34.5585 15.5615 34.4888C15.738 34.5209 15.8712 34.6318 15.9952 34.7483C16.2121 34.9528 16.417 35.1684 16.6292 35.3775C16.6963 35.4444 16.7478 35.5169 16.7524 35.6141C16.6706 35.7095 16.5934 35.8094 16.507 35.8993C14.1585 38.3517 11.6592 40.6408 9.00186 42.7566C8.8769 42.8566 8.73815 42.9401 8.60676 43.0308C8.57 42.974 8.54152 42.908 8.49374 42.8612C8.14182 42.5209 7.83308 42.1339 7.40766 41.8753L7.40674 41.8762Z" fill="#C22A30"/>
<path d="M4.91138 39.5984C4.98029 39.5388 5.04461 39.4737 5.1172 39.4186C7.63117 37.5037 9.98711 35.4099 12.2098 33.1648C12.5002 32.8713 12.7905 32.5769 13.0809 32.2825C13.2371 32.2678 13.3648 32.3118 13.4769 32.432C13.6791 32.6484 13.8913 32.8548 14.1045 33.0602C14.1853 33.1382 14.2809 33.2005 14.37 33.2693C14.2928 33.3528 14.2184 33.4408 14.1366 33.5197C13.9979 33.6554 13.8288 33.7673 13.7186 33.9223C13.5651 34.1406 13.3786 34.324 13.1939 34.5102C11.517 36.205 9.76475 37.8183 7.91969 39.3297C7.4033 39.7525 6.86945 40.1532 6.34203 40.5632C6.30619 40.5907 6.26393 40.6091 6.22442 40.6311C6.13988 40.5559 6.05167 40.4843 5.96989 40.4045C5.76591 40.2055 5.56468 40.0038 5.36437 39.8011C5.23941 39.6745 5.09515 39.592 4.91138 39.5975V39.5984Z" fill="#C12930"/>
<path d="M2.83323 38.8451C2.49417 38.8415 2.23505 38.703 2.08069 38.3921C1.92816 38.0849 1.94102 37.7877 2.16155 37.5217C2.27824 37.3814 2.41055 37.2457 2.55941 37.143C3.82007 36.269 4.98334 35.2766 6.14017 34.2742C6.65289 33.8294 7.15366 33.3708 7.66271 32.9224C7.77481 32.8233 7.88966 32.7243 8.01646 32.6481C8.34357 32.4519 8.65415 32.4876 8.93715 32.7371C9.3635 33.1131 9.39841 33.4763 9.00331 33.8945C8.63301 34.287 8.24158 34.6631 7.83729 35.0217C7.24371 35.549 6.63819 36.0626 6.02623 36.567C5.23694 37.2191 4.4357 37.8565 3.63906 38.5003C3.56739 38.5581 3.49572 38.6168 3.41853 38.6663C3.2412 38.78 3.04916 38.8516 2.83323 38.8461V38.8451Z" fill="#C12930"/>
<path d="M7.26182 26.2317C6.81067 26.7068 6.36502 27.1874 5.90743 27.6551C4.9895 28.5924 4.03941 29.4958 3.04154 30.3478C2.87614 30.489 2.73189 30.6559 2.57201 30.8045C2.46266 30.9063 2.35332 31.0108 2.22927 31.0916C1.87184 31.3227 1.41793 31.297 1.10001 31.0411C0.803216 30.8027 0.729709 30.4578 0.899696 30.1148C0.993419 29.9259 1.13768 29.7791 1.2948 29.6416C1.78823 29.2096 2.28257 28.7795 2.77048 28.3411C3.81429 27.4029 4.82503 26.4298 5.78247 25.4026C5.83668 25.3449 5.89916 25.2953 5.95889 25.2412C6.17574 25.2311 6.31632 25.3742 6.45691 25.5017C6.64251 25.6695 6.81066 25.8575 6.9926 26.029C7.07345 26.1052 7.17177 26.1648 7.26274 26.2317H7.26182Z" fill="#C22A30"/>
<path d="M19.994 37.0015C19.9747 37.03 19.9591 37.0611 19.9361 37.0859C18.6865 38.4708 17.4083 39.8281 16.0154 41.0726C15.9556 41.1268 15.8978 41.1836 15.8334 41.2313C15.4622 41.5055 14.9412 41.4285 14.6647 41.0598C14.4552 40.781 14.4395 40.4472 14.6371 40.161C14.7152 40.0482 14.8108 39.9464 14.9091 39.8501C16.1679 38.6184 17.4148 37.3739 18.6093 36.0789C18.6323 36.0541 18.6626 36.0367 18.6892 36.0156C18.7912 36.0615 18.9079 36.089 18.9915 36.1578C19.2341 36.3577 19.4638 36.5742 19.6972 36.7851C19.7882 36.8676 19.8635 36.9713 19.994 37.0015Z" fill="#C22A30"/>
<path d="M23.9373 0.988957C23.9336 1.07425 23.9649 1.14579 24.0274 1.20265C24.246 1.40166 24.4206 1.64929 24.6825 1.80153C24.7119 1.81895 24.7367 1.84372 24.7606 1.86756C25.1658 2.27109 25.5692 2.67555 25.9744 3.07816C26.0433 3.14603 26.0865 3.22123 26.0709 3.3212C25.7208 3.20931 25.3726 3.09375 25.0216 2.98737C24.1073 2.70856 23.1774 2.50588 22.2292 2.37565C21.5547 2.28302 20.8794 2.23716 20.1994 2.23074C20.0625 2.22891 19.9256 2.21148 19.7878 2.20231C19.7942 2.10234 19.7418 2.03264 19.6738 1.96661C19.299 1.60343 18.9277 1.23658 18.5501 0.875233C18.4729 0.800946 18.4196 0.721157 18.4031 0.616605C19.2953 0.529479 20.1884 0.497379 21.0843 0.581754C21.438 0.615688 21.7946 0.626693 22.1474 0.670715C22.7492 0.745919 23.3529 0.814703 23.9373 0.989874V0.988957Z" fill="#F39D3B"/>
<path d="M20.1876 50.5063C19.7016 50.5018 19.4149 50.2358 19.3791 49.8057C19.3533 49.5039 19.4434 49.2352 19.6437 49.0096C19.7503 48.8904 19.8706 48.7803 19.9974 48.6822C20.2804 48.463 20.535 48.2135 20.7959 47.9705C21.4281 47.3826 22.0731 46.8085 22.7154 46.2316C22.7834 46.1711 22.8606 46.1179 22.9405 46.073C23.2566 45.8932 23.535 45.9143 23.8052 46.1317C24.0863 46.3573 24.1837 46.659 24.0872 46.9901C24.0413 47.1488 23.9604 47.2872 23.8437 47.401C23.2345 47.9953 22.6612 48.6262 21.9932 49.1618C21.599 49.4783 21.2406 49.8387 20.8676 50.1817C20.7307 50.3073 20.5855 50.4192 20.3999 50.4632C20.3108 50.4843 20.2207 50.499 20.1876 50.5063Z" fill="#C22A30"/>
<path d="M21.3083 3.98548C21.3395 4.04326 21.3588 4.11296 21.4039 4.15698C21.5178 4.26704 21.6474 4.3615 21.7641 4.46972C22.1399 4.81823 22.5129 5.16949 22.8869 5.52074C22.9448 5.57577 23.0091 5.62897 23.0495 5.69592C23.0817 5.75003 23.0817 5.82339 23.0955 5.88851C22.3742 5.74085 21.6446 5.6363 20.9104 5.59136C20.2792 5.55284 19.6452 5.54367 19.0139 5.61246C18.4654 5.67207 17.9168 5.72802 17.3692 5.78488C17.3738 5.65465 17.2791 5.58402 17.2001 5.50423C16.9043 5.208 16.6056 4.91453 16.3125 4.61555C16.2353 4.53576 16.1747 4.43946 16.1067 4.3505C16.5799 4.20009 17.0696 4.12947 17.5576 4.05335C18.4939 3.90844 19.4366 3.88001 20.3812 3.91303C20.6908 3.92403 20.9996 3.96164 21.3092 3.98732L21.3083 3.98548Z" fill="#ED903A"/>
<path d="M33.4878 15.5766C33.6808 15.5629 33.8011 15.7014 33.9389 15.7977C34.0042 15.8435 34.0538 15.9105 34.1126 15.9655C34.5298 16.3599 34.9469 16.7551 35.3678 17.1449C35.4146 17.188 35.4872 17.2045 35.5479 17.233C35.5892 17.4696 35.6416 17.7044 35.6691 17.9428C35.7822 18.9241 35.8143 19.9064 35.7188 20.8932C35.6728 21.3609 35.6315 21.8277 35.5543 22.2918C35.5469 22.3358 35.5295 22.3789 35.5166 22.423C35.3512 22.3633 35.2152 22.2606 35.1004 22.1295C34.8284 21.8186 34.4939 21.5755 34.1898 21.2986C34.1512 21.2637 34.0869 21.2573 34.0345 21.238C34.04 21.0775 34.0345 20.9152 34.0529 20.7565C34.1273 20.1485 34.12 19.5377 34.0832 18.9306C34.0226 17.93 33.8498 16.9459 33.5834 15.9783C33.5466 15.8463 33.519 15.7115 33.4878 15.5776V15.5766Z" fill="#ED903A"/>
<path d="M5.4075 23.3181C5.32848 23.4162 5.25498 23.519 5.17044 23.6116C4.29662 24.5764 3.37409 25.4935 2.43594 26.3951C2.00224 26.8114 1.43256 26.772 1.08247 26.3144C0.923512 26.1071 0.872056 25.8778 0.981399 25.6348C1.03745 25.51 1.11279 25.3917 1.19365 25.2817C1.26165 25.19 1.34618 25.1093 1.43072 25.0322C2.35416 24.1967 3.19675 23.2833 4.03199 22.3625C4.08528 22.3038 4.14684 22.2506 4.20381 22.1956C4.35542 22.2157 4.4813 22.2854 4.58789 22.3927C4.81852 22.6248 5.05099 22.8568 5.28346 23.087C5.34962 23.1521 5.40383 23.2218 5.40659 23.319L5.4075 23.3181Z" fill="#C22A30"/>
<path d="M18.4046 0.615848C18.4203 0.7204 18.4736 0.800191 18.5517 0.874478C18.9284 1.23582 19.3005 1.60267 19.6754 1.96585C19.7434 2.03189 19.7958 2.10159 19.7894 2.20155C19.6993 2.21256 19.6093 2.23182 19.5183 2.23365C18.0224 2.2685 16.5587 2.51062 15.1207 2.91508C15.0334 2.93984 14.9415 2.94442 14.8515 2.95818C14.7329 2.83712 14.6153 2.71514 14.4959 2.595C14.2542 2.35288 14.0116 2.11076 13.769 1.86864C13.7047 1.80444 13.634 1.74299 13.6331 1.64027C14.0144 1.51371 14.3929 1.37889 14.7779 1.26334C15.717 0.980863 16.679 0.807528 17.6494 0.678213C17.8993 0.645197 18.1529 0.635107 18.4046 0.614014V0.615848Z" fill="#ED903A"/>
<path d="M18.3899 17.7453C18.7923 17.4087 19.2628 17.2592 19.781 17.2271C21.1106 17.1437 22.125 18.1268 22.374 19.1641C22.4475 19.4704 22.4687 19.7841 22.3988 20.0849C22.2904 20.5517 22.1581 21.0148 21.9541 21.4523C21.8824 21.4202 21.7988 21.4019 21.7428 21.3523C21.4671 21.1111 21.1942 20.8681 20.9314 20.6122C20.8212 20.5049 20.7054 20.4646 20.5602 20.4783C20.6108 20.2903 20.6668 20.1041 20.7091 19.9143C20.7311 19.8152 20.7449 19.7079 20.7339 19.608C20.6852 19.1338 20.2974 18.8321 19.8123 18.8899C19.7112 18.9018 19.6138 18.9412 19.5146 18.9687C19.4962 18.9156 19.4916 18.8477 19.4558 18.8119C19.2104 18.5707 18.9963 18.2983 18.706 18.1021C18.5737 18.0131 18.4515 17.903 18.3899 17.7453Z" fill="#DF6D36"/>
<path d="M18.2557 10.7092C18.2695 10.7523 18.2695 10.8101 18.2989 10.8357C18.4514 10.9733 18.6168 11.0962 18.7666 11.2365C19.0257 11.4786 19.2812 11.7253 19.5265 11.9821C19.5724 12.0307 19.5633 12.1307 19.5798 12.2077C19.3078 12.2481 19.0358 12.282 18.7648 12.3288C17.5014 12.548 16.3344 12.9956 15.3108 13.7824C15.2842 13.8026 15.2511 13.8155 15.2217 13.832C15.195 13.6568 15.0462 13.5752 14.9332 13.4697C14.8091 13.3551 14.6741 13.2533 14.5482 13.1395C14.4471 13.0488 14.3534 12.9497 14.2587 12.8516C14.1926 12.7828 14.1154 12.7415 14.0208 12.7323C14.2881 12.459 14.6088 12.2564 14.9249 12.0491C15.8254 11.4575 16.7957 11.0219 17.8496 10.7825C17.9838 10.7523 18.1207 10.733 18.2557 10.7083V10.7092Z" fill="#E17437"/>
<path d="M9.1106 44.768C9.15194 44.7285 9.18962 44.6854 9.23464 44.6515C10.2105 43.9215 11.1468 43.1437 12.0812 42.3614C12.186 42.2734 12.2972 42.1863 12.4175 42.123C12.9312 41.8533 13.533 42.1615 13.6222 42.7329C13.6543 42.9365 13.601 43.1236 13.4862 43.2877C13.4145 43.3904 13.3309 43.4895 13.2344 43.5684C12.3266 44.3094 11.4151 45.0458 10.5036 45.7823C10.487 45.796 10.4622 45.8006 10.442 45.8089C10.3657 45.7429 10.2858 45.6796 10.2141 45.609C10.012 45.4109 9.80984 45.2137 9.61505 45.0101C9.47538 44.8643 9.31642 44.7716 9.11152 44.767L9.1106 44.768Z" fill="#C12930"/>
<path d="M27.4557 19.2341C27.5173 19.2598 27.5862 19.2754 27.6395 19.313C27.7038 19.3589 27.7544 19.4249 27.8132 19.4799C28.1403 19.7835 28.4692 20.0852 28.7945 20.3915C28.868 20.4603 28.9498 20.4833 29.0453 20.4787C29.0536 20.8611 28.9672 21.2335 28.8928 21.6031C28.687 22.6211 28.3415 23.596 27.9482 24.5544C27.9354 24.5846 27.9106 24.6103 27.8913 24.6387C27.8591 24.6076 27.8315 24.569 27.7939 24.5461C27.5586 24.4012 27.3602 24.2141 27.17 24.016C27.0671 23.9087 26.9568 23.8097 26.8557 23.7005C26.7712 23.6088 26.6683 23.5758 26.5488 23.5795C26.5911 23.4492 26.6269 23.3172 26.6756 23.1888C26.9871 22.3615 27.2481 21.5187 27.3565 20.6392C27.4135 20.1742 27.4245 19.7028 27.4557 19.235V19.2341Z" fill="#E27537"/>
<path d="M8.09482 6.83511C7.79068 7.09282 7.53616 7.40006 7.25958 7.68528C6.97933 7.97326 6.71195 8.27591 6.45926 8.58773C6.15512 8.96192 5.87304 9.35445 5.58084 9.7378C5.53214 9.80109 5.47977 9.8607 5.42923 9.92306C5.33183 9.91939 5.26016 9.86987 5.19033 9.80567C4.84668 9.49201 4.50027 9.18111 4.15479 8.86929C4.17408 8.82893 4.18787 8.784 4.21359 8.74731C4.95511 7.69629 5.79218 6.72689 6.73308 5.84737C6.76616 5.8171 6.80659 5.79417 6.84334 5.76758C6.97106 5.7685 7.04641 5.85746 7.12635 5.93816C7.35974 6.17111 7.58945 6.40681 7.82743 6.63426C7.90737 6.7113 8.00661 6.76908 8.09666 6.83511H8.09482Z" fill="#DB6435"/>
<path d="M13.6323 1.64209C13.6332 1.74389 13.704 1.80534 13.7683 1.87045C14.0109 2.11257 14.2534 2.35378 14.4951 2.59682C14.6145 2.71696 14.7322 2.83893 14.8507 2.95999C14.6164 3.04712 14.3848 3.14067 14.1478 3.21954C13.7499 3.35161 13.3585 3.49559 12.9845 3.68452C12.3928 3.9835 11.8019 4.28524 11.2111 4.58514C11.1918 4.59522 11.167 4.59614 11.145 4.60073C11.0273 4.4063 10.9024 4.22104 10.6929 4.10915C10.6451 4.08347 10.6111 4.03119 10.5707 3.99176C10.3924 3.81842 10.2307 3.62766 10.0157 3.49559C9.98997 3.48 9.97986 3.43965 9.9624 3.4103C9.9964 3.38095 10.0276 3.3461 10.0653 3.32317C11.1661 2.65551 12.322 2.10065 13.5331 1.66043C13.5643 1.64851 13.6001 1.64759 13.6332 1.64209H13.6323Z" fill="#E78238"/>
<path d="M29.7377 15.0961C29.8452 15.0851 29.9426 15.1043 30.018 15.1914C30.04 15.2171 30.0658 15.2401 30.0906 15.2639C30.6593 15.8087 31.2299 16.3525 31.7969 16.9C31.8842 16.9844 31.9761 17.0404 32.1001 17.0257C32.1626 17.3155 32.2416 17.6026 32.2848 17.8951C32.3877 18.5967 32.4575 19.3029 32.4566 20.0137C32.4566 20.2402 32.4759 20.4713 32.3987 20.6924C32.2857 20.6905 32.2094 20.6245 32.135 20.5493C31.9825 20.3943 31.8208 20.2485 31.6756 20.087C31.4532 19.8394 31.1822 19.6468 30.9341 19.4286C30.8955 19.3946 30.8302 19.39 30.777 19.3717C30.7623 19.2818 30.7384 19.1929 30.7329 19.1021C30.6575 17.7741 30.3313 16.5066 29.8057 15.2868C29.7791 15.2245 29.7598 15.1584 29.7368 15.0942L29.7377 15.0961Z" fill="#EB8B39"/>
<path d="M34.0989 31.1777C34.1485 31.0631 34.1926 30.9457 34.2487 30.8338C34.72 29.8928 35.1749 28.9445 35.5617 27.965C35.5865 27.9018 35.6251 27.844 35.6572 27.7834C35.7868 27.7871 35.8971 27.8229 35.9945 27.9201C36.2775 28.1998 36.5375 28.5043 36.8692 28.7327C36.9317 28.7758 36.9684 28.8547 37.0171 28.917C36.9243 29.1619 36.8398 29.4104 36.7387 29.6516C36.407 30.4422 36.0542 31.2236 35.6315 31.971C35.57 32.0793 35.4992 32.182 35.4321 32.2874C35.3035 32.2874 35.2291 32.1985 35.1491 32.1187C34.8845 31.8546 34.6199 31.5904 34.3552 31.3254C34.2827 31.2529 34.2147 31.1741 34.0989 31.1768V31.1777Z" fill="#E27537"/>
<path d="M17.0122 14.675C17.2098 14.7208 17.3549 14.8483 17.4983 14.9804C17.7004 15.1666 17.8667 15.3885 18.1038 15.5389C18.215 15.6086 18.2527 15.737 18.271 15.8654C18.2223 15.8948 18.1764 15.9278 18.1259 15.9525C17.0839 16.468 16.3883 17.2888 15.9868 18.3692C15.9546 18.4545 15.9188 18.5388 15.8848 18.6241C15.7892 18.6195 15.712 18.5801 15.6413 18.5141C15.35 18.2426 15.0541 17.9748 14.762 17.7033C14.694 17.64 14.6296 17.5758 14.5286 17.5768C14.5405 17.5217 14.5433 17.4621 14.5644 17.4108C15.0468 16.2176 15.8756 15.328 16.9782 14.6805C16.9874 14.675 17.0003 14.6759 17.0122 14.6741V14.675Z" fill="#DB6636"/>
<path d="M4.15411 8.86914C4.4996 9.18096 4.846 9.49187 5.18965 9.80552C5.25949 9.86972 5.33116 9.92017 5.42856 9.92292C5.39548 9.98253 5.36516 10.044 5.32748 10.1018C4.66132 11.1198 4.07233 12.1781 3.6322 13.3144C3.61199 13.3667 3.58075 13.4144 3.5541 13.4648C3.43189 13.33 3.32714 13.1714 3.18289 13.0677C3.02301 12.9531 2.88885 12.8164 2.74827 12.6835C2.6573 12.5972 2.56725 12.5083 2.48088 12.4175C2.41105 12.3441 2.3256 12.3267 2.23096 12.3322C2.28793 12.1836 2.33754 12.0314 2.4037 11.8874C2.84567 10.918 3.37676 9.9972 3.96115 9.10668C4.0172 9.0223 4.08887 8.94801 4.15319 8.86914H4.15411Z" fill="#D45534"/>
<path d="M2.23219 12.332C2.32683 12.3265 2.41229 12.3439 2.48212 12.4173C2.56849 12.5081 2.65854 12.5961 2.74951 12.6833C2.88917 12.8162 3.02332 12.9529 3.18412 13.0675C3.32838 13.1712 3.43313 13.3298 3.55534 13.4646C3.27233 14.3258 2.95717 15.1751 2.51704 15.9711C2.44537 16.1005 2.3544 16.2224 2.25425 16.3316C2.02178 16.5856 1.60094 16.7113 1.18011 16.4719C0.937533 16.3334 0.81808 16.127 0.844727 15.8446C0.865861 15.6135 0.934775 15.3952 1.02298 15.1824C1.16816 14.833 1.31426 14.4836 1.46128 14.1341C1.69191 13.5839 1.92254 13.0336 2.15409 12.4842C2.17614 12.432 2.20646 12.3834 2.23311 12.3329L2.23219 12.332Z" fill="#CF4933"/>
<path d="M34.0351 21.2376C34.0875 21.2569 34.1518 21.2633 34.1904 21.2981C34.4936 21.5751 34.8281 21.8182 35.101 22.1291C35.2159 22.2602 35.3518 22.3629 35.5172 22.4225C35.4437 23.0388 35.2848 23.6368 35.1102 24.2293C34.9356 24.8217 34.7261 25.4041 34.5295 25.9892C34.512 26.0415 34.4789 26.0892 34.4523 26.1387C34.3907 26.1121 34.3135 26.1011 34.2713 26.0562C34.0168 25.793 33.7319 25.5628 33.4627 25.317C33.3414 25.2069 33.2192 25.1556 33.063 25.1702C33.0832 25.0932 33.0979 25.0143 33.1245 24.9391C33.4948 23.9101 33.7705 22.8573 33.9478 21.7778C33.9772 21.5971 34.0067 21.4155 34.0361 21.2349L34.0351 21.2376Z" fill="#E78238"/>
<path d="M10.2232 27.9534C10.1828 27.9323 10.1368 27.9176 10.1037 27.8874C9.8235 27.6361 9.54141 27.3866 9.26851 27.128C9.16468 27.0289 9.06177 26.9482 8.91016 26.9592C8.94232 26.9125 8.96988 26.8611 9.00756 26.8189C9.79226 25.9339 10.5411 25.0186 11.222 24.051C11.2541 24.0052 11.2964 23.9658 11.3341 23.9226C11.5206 23.9043 11.6603 23.9795 11.7862 24.1171C11.9718 24.3198 12.1702 24.5105 12.3687 24.7004C12.4505 24.7783 12.546 24.8398 12.6361 24.9095C12.3908 25.2534 12.1592 25.6083 11.8973 25.9394C11.3901 26.5796 10.8664 27.2059 10.3482 27.8369C10.3123 27.881 10.2655 27.9149 10.2232 27.9534Z" fill="#C93C31"/>
<path d="M37.0169 28.9172C36.9682 28.8548 36.9314 28.775 36.8689 28.7328C36.5372 28.5036 36.2772 28.2 35.9942 27.9203C35.8959 27.8231 35.7865 27.7873 35.657 27.7836C35.7792 27.4507 35.9032 27.1187 36.0245 26.7849C36.3176 25.9778 36.5758 25.1597 36.7954 24.3297C36.8184 24.2417 36.8497 24.1555 36.8772 24.0684C37.0316 24.0867 37.1483 24.1711 37.2539 24.2784C37.4285 24.4554 37.6049 24.6315 37.7823 24.8057C37.9192 24.9415 38.0662 25.0634 38.2619 25.1056C38.2491 25.1845 38.2435 25.2652 38.2233 25.3422C37.9155 26.4822 37.548 27.603 37.1253 28.7053C37.0968 28.7787 37.0527 28.8466 37.0169 28.9163V28.9172Z" fill="#E78238"/>
<path d="M9.96056 3.41016C9.97802 3.4395 9.98813 3.47986 10.0139 3.49545C10.2298 3.62751 10.3906 3.81919 10.5688 3.99161C10.6093 4.03105 10.6433 4.08332 10.691 4.109C10.9005 4.21998 11.0255 4.40615 11.1431 4.60058C11.1358 4.60975 11.1312 4.62167 11.122 4.62718C10.1266 5.26244 9.13697 5.98758 8.15318 6.80259C8.13572 6.81727 8.11367 6.82552 8.09438 6.83653C8.00433 6.76958 7.90509 6.71272 7.82515 6.63568C7.58717 6.40731 7.35746 6.17253 7.12407 5.93958C7.04413 5.85979 6.96878 5.77083 6.84106 5.769C7.06802 5.55989 7.28854 5.34254 7.52285 5.1426C8.24139 4.53272 9.00404 3.98152 9.80619 3.48628C9.85397 3.45693 9.90819 3.43675 9.95964 3.41199L9.96056 3.41016Z" fill="#E17437"/>
<path d="M19.9942 37.0017C19.8647 36.9714 19.7893 36.8678 19.6974 36.7853C19.464 36.5743 19.2343 36.3579 18.9918 36.1579C18.9091 36.0892 18.7914 36.0626 18.6895 36.0158C18.7529 35.936 18.8153 35.8553 18.8815 35.7773C19.4962 35.0519 20.1118 34.3274 20.7265 33.601C20.8809 33.4185 21.0298 33.2314 21.1814 33.0461C21.3514 33.0608 21.4671 33.1663 21.5811 33.2782C21.8613 33.5542 22.1453 33.8266 22.4273 34.1008C22.0938 34.5291 21.7704 34.9648 21.4258 35.3839C21.0399 35.8516 20.6356 36.3056 20.2368 36.7632C20.1624 36.8485 20.0751 36.9228 19.9942 37.0017Z" fill="#C93C31"/>
<path d="M16.1074 4.34814C16.1754 4.43711 16.2351 4.5334 16.3132 4.61319C16.6063 4.91217 16.9049 5.20565 17.2008 5.50188C17.2798 5.58167 17.3745 5.65229 17.3699 5.78252C17.0372 5.86415 16.7046 5.94394 16.372 6.02648C15.5708 6.22458 14.8008 6.51164 14.0482 6.84822C13.9334 6.89958 13.8185 6.94819 13.7027 6.99771C13.7092 6.9005 13.6816 6.81979 13.6099 6.74917C13.2571 6.40525 12.9337 6.03015 12.511 5.76418C12.6378 5.68898 12.7618 5.60552 12.8932 5.53949C13.8056 5.07817 14.7511 4.70124 15.7407 4.43711C15.862 4.40501 15.9861 4.37841 16.1083 4.34906L16.1074 4.34814Z" fill="#E78238"/>
<path d="M4.5166 15.6464C4.63881 15.3391 4.76194 15.0319 4.88231 14.7228C5.07802 14.2221 5.2673 13.7195 5.46761 13.2206C5.62106 12.84 5.77818 12.4594 6.01525 12.12C6.13562 12.1136 6.23302 12.1549 6.31939 12.2429C6.60607 12.5355 6.89918 12.8225 7.1877 13.1142C7.22721 13.1536 7.25202 13.2068 7.28418 13.2536C7.14268 13.5911 6.99474 13.9258 6.86059 14.2661C6.62628 14.8631 6.403 15.4639 6.1687 16.0609C6.09427 16.2517 5.99779 16.4333 5.91142 16.6194C5.83975 16.5873 5.75521 16.5699 5.69916 16.5204C5.42351 16.2792 5.14969 16.0352 4.88782 15.7803C4.77756 15.673 4.66178 15.6308 4.5166 15.6464Z" fill="#D24F33"/>
<path d="M29.3325 32.9048C29.361 32.8433 29.3858 32.7791 29.4189 32.7204C29.8315 31.9922 30.2449 31.264 30.6593 30.5367C30.7108 30.4469 30.7604 30.3561 30.8192 30.2717C30.8716 30.1965 30.9286 30.1231 30.9938 30.0598C31.3953 29.6655 32.045 29.7746 32.3004 30.2763C32.3886 30.4487 32.396 30.6321 32.3491 30.8128C32.3124 30.9559 32.2627 31.1008 32.1911 31.2292C31.7096 32.0894 31.2208 32.946 30.7329 33.8026C30.7163 33.8311 30.6878 33.8531 30.6649 33.8778C30.5675 33.8751 30.4949 33.8265 30.4296 33.7595C30.335 33.6623 30.2367 33.5697 30.142 33.4715C29.9693 33.2927 29.7855 33.1285 29.5843 32.9818C29.5043 32.924 29.4253 32.902 29.3334 32.9057L29.3325 32.9048Z" fill="#DB6435"/>
<path d="M4.51741 15.6466C4.66259 15.6319 4.77837 15.6741 4.88863 15.7805C5.1505 16.0355 5.42432 16.2794 5.69998 16.5206C5.75603 16.5702 5.84056 16.5876 5.91223 16.6197C5.88926 16.6839 5.86996 16.7499 5.84148 16.8114C5.36184 17.8385 4.76458 18.7942 4.08463 19.6994C4.05799 19.7352 4.02215 19.7645 3.99091 19.7975C3.86595 19.7975 3.78233 19.7232 3.70056 19.6407C3.50117 19.4389 3.29718 19.2417 3.09963 19.0381C2.96731 18.9024 2.81662 18.8125 2.62183 18.8144C2.63745 18.7841 2.64847 18.7502 2.66961 18.7245C3.38998 17.867 3.93027 16.9022 4.39245 15.8887C4.43012 15.8062 4.47607 15.7264 4.51833 15.6457L4.51741 15.6466Z" fill="#CB3F32"/>
<path d="M34.1 31.1777C34.2158 31.1749 34.2838 31.2538 34.3564 31.3262C34.621 31.5904 34.8857 31.8545 35.1503 32.1196C35.2302 32.1994 35.3046 32.2892 35.4333 32.2883C35.4002 32.3608 35.3736 32.4369 35.3341 32.5057C34.7947 33.4384 34.2535 34.3702 33.7114 35.302C33.6774 35.3607 33.6323 35.4139 33.5919 35.4689C33.4835 35.4661 33.4026 35.4111 33.3254 35.3387C33.0535 35.0855 32.776 34.8388 32.5049 34.5848C32.4332 34.5178 32.357 34.4857 32.2605 34.4931C32.3239 34.3729 32.3864 34.251 32.4525 34.1317C32.9542 33.2238 33.4559 32.3149 33.9595 31.4079C34.0036 31.329 34.0532 31.2538 34.1 31.1768V31.1777Z" fill="#DB6636"/>
<path d="M26.5492 23.5798C26.6686 23.5761 26.7716 23.6082 26.8561 23.7008C26.9562 23.81 27.0674 23.9099 27.1703 24.0163C27.3605 24.2144 27.559 24.4015 27.7942 24.5464C27.8319 24.5693 27.8595 24.6079 27.8916 24.6391C27.774 24.9353 27.6702 25.2379 27.537 25.5259C27.1731 26.3128 26.7982 27.0942 26.4251 27.8765C26.3912 27.9471 26.3406 28.0095 26.2983 28.0755C26.212 28.0021 26.121 27.9343 26.0402 27.8545C25.8114 27.6316 25.5826 27.4078 25.362 27.1758C25.2582 27.0658 25.1424 27.019 24.9963 27.0364C25.2049 26.5934 25.4227 26.1541 25.6212 25.7066C25.9023 25.071 26.1688 24.4281 26.4435 23.7898C26.4748 23.7173 26.5143 23.6486 26.551 23.5789L26.5492 23.5798Z" fill="#DB6636"/>
<path d="M13.4368 29.3408C13.254 29.56 13.0794 29.7874 12.8864 29.9984C12.438 30.4899 11.9814 30.9742 11.5265 31.4593C11.4558 31.5345 11.3823 31.6088 11.2996 31.6693C11.0359 31.8638 10.695 31.8638 10.3945 31.684C10.095 31.5052 9.94796 31.1934 10.0114 30.8705C10.0499 30.6734 10.1152 30.4954 10.2576 30.3514C10.9376 29.6682 11.5835 28.9538 12.2111 28.2228C12.2184 28.2146 12.2313 28.2118 12.2414 28.2063C12.3728 28.2063 12.4426 28.3044 12.5263 28.3815C12.8037 28.6383 13.039 28.9409 13.3551 29.1583C13.4019 29.1904 13.4102 29.2784 13.4359 29.3408H13.4368Z" fill="#C53230"/>
<path d="M24.9946 27.038C25.1407 27.0197 25.2565 27.0674 25.3603 27.1774C25.5799 27.4094 25.8096 27.6323 26.0384 27.8561C26.1193 27.935 26.2103 28.0037 26.2966 28.0771C26.2709 28.1404 26.2507 28.2055 26.2185 28.2651C25.6939 29.2382 25.1471 30.1984 24.5453 31.1265C24.515 31.1733 24.4736 31.2128 24.4369 31.2559C24.3496 31.1834 24.2577 31.1174 24.1778 31.0385C23.9416 30.8083 23.7073 30.5754 23.4767 30.3397C23.3921 30.2525 23.2993 30.2003 23.1753 30.214C23.1992 30.1626 23.2185 30.1085 23.2479 30.0618C23.8442 29.1281 24.3882 28.1652 24.9046 27.1857C24.9312 27.1352 24.9643 27.0885 24.9937 27.0398L24.9946 27.038Z" fill="#D65934"/>
<path d="M31.6264 24.0955C31.6081 24.1725 31.5943 24.2514 31.5695 24.3266C31.2571 25.2831 30.8859 26.2186 30.4862 27.1421C30.4595 27.2036 30.4191 27.2595 30.3851 27.3182C30.3327 27.3008 30.2675 27.2971 30.2289 27.2641C30.0056 27.0752 29.786 26.8817 29.5691 26.6854C29.4607 26.5873 29.3596 26.48 29.2567 26.3754C29.1988 26.3167 29.1345 26.2755 29.0491 26.2755C29.0776 26.1893 29.0996 26.0994 29.1345 26.0159C29.5517 25.0328 29.9293 24.0359 30.2362 23.0133C30.2427 22.9922 30.2564 22.972 30.2665 22.9518C30.4136 22.9481 30.5257 23.0096 30.6286 23.1151C30.7866 23.2792 30.9529 23.4333 31.1358 23.5736C31.3232 23.7176 31.507 23.8799 31.6264 24.0946V24.0955Z" fill="#E27537"/>
<path d="M15.6386 9.77437C15.5788 9.80555 15.52 9.84132 15.4585 9.86883C14.4826 10.3045 13.5803 10.8557 12.7773 11.5628C12.7442 11.5921 12.7019 11.6123 12.6642 11.637C12.6624 11.5206 12.5889 11.4518 12.5025 11.3913C12.1387 11.1345 11.8621 10.785 11.5359 10.4879C11.5809 10.4374 11.6223 10.3815 11.6728 10.3375C12.4805 9.63772 13.358 9.03975 14.3099 8.55276C14.3797 8.51699 14.4578 8.49498 14.5313 8.46655C14.6058 8.55276 14.6756 8.64264 14.7555 8.72335C15.0046 8.97647 15.2554 9.22685 15.509 9.47539C15.5954 9.56068 15.6533 9.65147 15.6376 9.77712L15.6386 9.77437Z" fill="#E17437"/>
<path d="M14.5286 17.5777C14.6306 17.5758 14.694 17.641 14.762 17.7042C15.0541 17.9757 15.35 18.2426 15.6413 18.515C15.712 18.581 15.7892 18.6204 15.8848 18.625C15.7038 19.2413 15.4557 19.8329 15.1966 20.4189C14.9834 20.9004 14.7445 21.37 14.5148 21.8441C14.4854 21.9047 14.4404 21.9569 14.4027 22.0138C14.082 21.5791 13.6511 21.259 13.244 20.9132C13.221 20.894 13.1788 20.8986 13.1448 20.8922C13.1687 20.8289 13.1861 20.7628 13.2164 20.7023C13.6887 19.7485 14.0958 18.7681 14.4459 17.7639C14.4679 17.7006 14.5001 17.64 14.5276 17.5786L14.5286 17.5777Z" fill="#D65934"/>
<path d="M32.2595 34.4932C32.3551 34.4859 32.4323 34.518 32.504 34.5849C32.775 34.8381 33.0534 35.0857 33.3245 35.3388C33.4017 35.4113 33.4816 35.4663 33.591 35.469C33.3015 35.9496 33.0176 36.4338 32.7199 36.9089C32.4286 37.3748 32.1236 37.8334 31.8231 38.2938C31.7735 38.3699 31.7128 38.4387 31.6568 38.5111C31.4978 38.4579 31.4069 38.3213 31.2957 38.2112C31.009 37.9278 30.7012 37.6701 30.363 37.45C30.3823 37.4087 30.397 37.3647 30.4228 37.328C31.043 36.4421 31.6237 35.5323 32.1778 34.6042C32.2007 34.5647 32.232 34.5299 32.2586 34.4932H32.2595Z" fill="#D65934"/>
<path d="M29.0497 26.2761C29.1351 26.2761 29.1994 26.3173 29.2573 26.376C29.3602 26.4806 29.4613 26.5879 29.5697 26.686C29.7866 26.8823 30.0062 27.0758 30.2295 27.2647C30.269 27.2977 30.3333 27.3014 30.3857 27.3188C30.2534 27.6215 30.1348 27.9306 29.9878 28.2259C29.6414 28.9201 29.2831 29.6089 28.9265 30.2976C28.8907 30.3674 28.8392 30.4288 28.7942 30.4939C28.6647 30.4939 28.5893 30.404 28.5085 30.3233C28.2659 30.0812 28.0215 29.8391 27.7807 29.5951C27.698 29.5108 27.6144 29.4365 27.4849 29.4539C27.5179 29.3814 27.5483 29.3072 27.5859 29.2365C28.0821 28.3167 28.5434 27.3784 28.9642 26.4219C28.9872 26.3705 29.0212 26.3238 29.0497 26.2751V26.2761Z" fill="#DB6636"/>
<path d="M22.1809 39.5498C21.8997 39.2884 21.6112 39.0343 21.3411 38.7629C21.2033 38.6244 21.0581 38.5428 20.8633 38.5538C20.9184 38.4813 20.9699 38.4043 21.0305 38.3364C21.5671 37.7348 22.1046 37.135 22.6431 36.5352C22.712 36.4582 22.7809 36.3793 22.8581 36.3105C23.0263 36.161 23.2211 36.0739 23.4517 36.0665C24.0692 36.0491 24.4716 36.6452 24.2134 37.2084C24.1564 37.3322 24.0765 37.4505 23.9865 37.5523C23.4067 38.208 22.8214 38.8583 22.2379 39.5094C22.2232 39.5259 22.2002 39.536 22.1818 39.5489L22.1809 39.5498Z" fill="#C93C31"/>
<path d="M31.6267 24.0958C31.5073 23.8803 31.3235 23.7179 31.1361 23.5749C30.9532 23.4346 30.7869 23.2805 30.6289 23.1163C30.5269 23.0099 30.4148 22.9485 30.2668 22.9531C30.3505 22.5862 30.4368 22.2203 30.5177 21.8525C30.6877 21.0812 30.7612 20.2989 30.7658 19.5093C30.7658 19.4634 30.7722 19.4185 30.7759 19.3735C30.8292 19.3919 30.8935 19.3955 30.933 19.4304C31.1811 19.6487 31.4522 19.8404 31.6745 20.0889C31.8197 20.2503 31.9814 20.3961 32.134 20.5511C32.2075 20.6263 32.2846 20.6924 32.3977 20.6942C32.3462 21.5563 32.1992 22.401 31.9263 23.2227C31.8289 23.5153 31.726 23.806 31.6258 24.0976L31.6267 24.0958Z" fill="#E78238"/>
<path d="M13.1445 20.8911C13.1776 20.8975 13.2208 20.8929 13.2437 20.9122C13.6508 21.257 14.0817 21.5771 14.4024 22.0128C14.3813 22.065 14.3656 22.1201 14.339 22.1705C13.8548 23.0821 13.3108 23.958 12.7246 24.8072C12.6988 24.8448 12.6649 24.876 12.6345 24.9099C12.5454 24.8412 12.4489 24.7788 12.3671 24.7008C12.1687 24.511 11.9702 24.3193 11.7846 24.1176C11.6587 23.9809 11.519 23.9057 11.3325 23.9231C11.3656 23.8635 11.3932 23.8002 11.4308 23.7443C12.0253 22.873 12.5665 21.9696 13.0508 21.0323C13.0765 20.9828 13.1133 20.9388 13.1445 20.892V20.8911Z" fill="#CF4933"/>
<path d="M23.1752 30.2119C23.2993 30.1981 23.3921 30.2513 23.4766 30.3375C23.7073 30.5732 23.9406 30.8062 24.1777 31.0364C24.2586 31.1152 24.3505 31.1813 24.4368 31.2537C24.4056 31.3143 24.378 31.3766 24.3413 31.4335C23.7854 32.2846 23.2001 33.1136 22.5863 33.9244C22.5385 33.9877 22.4797 34.0418 22.4264 34.1005C22.1443 33.8263 21.8604 33.5539 21.5801 33.2778C21.4662 33.165 21.3495 33.0605 21.1804 33.0458C21.2236 32.9788 21.2631 32.91 21.3109 32.8468C21.9192 32.0415 22.5008 31.2189 23.0503 30.3724C23.087 30.3155 23.1339 30.2651 23.1762 30.2119H23.1752Z" fill="#CF4933"/>
<path d="M2.62021 18.8152C2.81592 18.8134 2.96569 18.9023 3.09801 19.039C3.29556 19.2417 3.49955 19.4398 3.69894 19.6415C3.78072 19.7241 3.86433 19.7984 3.9893 19.7984C3.86525 19.9635 3.74672 20.1331 3.61716 20.2936C3.31578 20.6687 3.01531 21.0447 2.70382 21.4116C2.54854 21.595 2.38682 21.7794 2.19937 21.9279C1.86307 22.1957 1.41835 22.2031 1.06827 21.983C0.831205 21.8335 0.71543 21.6335 0.761373 21.3446C0.796289 21.1236 0.874391 20.9237 1.01038 20.7467C1.10135 20.6284 1.19875 20.5146 1.29339 20.3991C1.67287 19.9369 2.05144 19.4755 2.43184 19.0142C2.48973 18.9445 2.55681 18.8812 2.61929 18.8152H2.62021Z" fill="#C53230"/>
<path d="M15.6385 9.77492C15.6541 9.64928 15.5963 9.55848 15.5099 9.47319C15.2563 9.22557 15.0054 8.97428 14.7564 8.72115C14.6765 8.64044 14.6067 8.55057 14.5322 8.46436C14.7785 8.34788 15.0211 8.22223 15.2719 8.11768C15.894 7.85722 16.5399 7.66829 17.1978 7.51972C17.3081 7.49496 17.4229 7.49312 17.5359 7.4812C17.603 7.52431 17.6664 7.57475 17.7372 7.60868C18.0349 7.74992 18.2572 7.97094 18.4392 8.24058C18.4814 8.30386 18.5513 8.35338 18.6174 8.39649C18.8104 8.5203 18.9372 8.68538 18.9712 8.91558C18.3491 8.99812 17.7317 9.10634 17.1307 9.28793C16.6952 9.42 16.2652 9.57224 15.8324 9.71439C15.7681 9.73549 15.7028 9.75383 15.6385 9.77401V9.77492Z" fill="#E78238"/>
<path d="M30.3631 37.4514C30.7012 37.6715 31.009 37.9292 31.2957 38.2126C31.4069 38.3227 31.4979 38.4593 31.6568 38.5125C31.3012 39.0188 30.9539 39.5305 30.5873 40.0285C30.3098 40.4064 30.0075 40.7668 29.7171 41.1346C29.6776 41.1135 29.6298 41.0988 29.5986 41.0695C29.334 40.8191 29.0758 40.5641 28.7937 40.3321C28.6522 40.2156 28.5217 40.134 28.3389 40.1459C28.3683 40.0973 28.3949 40.046 28.4289 40.001C29.0418 39.1839 29.6556 38.3667 30.2694 37.5505C30.296 37.5147 30.3309 37.4844 30.3622 37.4514H30.3631Z" fill="#CF4933"/>
<path d="M14.021 12.7334C14.1157 12.7426 14.1929 12.7838 14.259 12.8526C14.3536 12.9508 14.4483 13.0489 14.5484 13.1406C14.6734 13.2543 14.8094 13.3561 14.9334 13.4708C15.0474 13.5762 15.1953 13.6579 15.222 13.833C15.0988 13.933 14.972 14.0284 14.8535 14.1329C14.7423 14.2311 14.6247 14.3264 14.5347 14.442C14.2287 14.8382 13.9236 15.2362 13.6388 15.648C13.4642 15.9002 13.3273 16.1781 13.1729 16.4441C12.7484 16.0644 12.3781 15.6242 11.9031 15.2995C12.0216 14.9868 12.2201 14.7199 12.4066 14.4484C12.8173 13.8523 13.3043 13.3231 13.8529 12.8508C13.9043 12.8068 13.9641 12.7728 14.0201 12.7343L14.021 12.7334Z" fill="#DB6435"/>
<path d="M13.4364 29.3408C13.4107 29.2785 13.4025 29.1904 13.3556 29.1583C13.0395 28.941 12.8043 28.6383 12.5268 28.3815C12.4432 28.3045 12.3724 28.2063 12.2419 28.2063C12.287 28.1403 12.3283 28.0715 12.3779 28.0101C12.9844 27.2718 13.5605 26.5097 14.1026 25.7228C14.1348 25.676 14.1743 25.6329 14.2101 25.5889C14.2754 25.6054 14.3516 25.6054 14.4031 25.6411C14.7642 25.8897 15.0591 26.2116 15.3605 26.5253C15.4037 26.5702 15.4138 26.6481 15.4395 26.7105C15.4193 26.7509 15.4037 26.794 15.378 26.8307C14.8147 27.6469 14.2156 28.4365 13.5798 29.1977C13.5366 29.2491 13.4842 29.294 13.4364 29.3417V29.3408Z" fill="#CB3F32"/>
<path d="M20.5597 20.4789C20.7049 20.4652 20.8207 20.5055 20.931 20.6128C21.1928 20.8678 21.4666 21.1117 21.7423 21.3529C21.7983 21.4025 21.8829 21.4199 21.9536 21.4529C21.8388 21.7739 21.7377 22.1013 21.6045 22.4159C21.3509 23.0138 21.0807 23.6054 20.8133 24.1969C20.7674 24.2996 20.7012 24.3932 20.6443 24.4913C20.5147 24.4932 20.4366 24.406 20.3548 24.3244C20.1435 24.1135 19.9257 23.908 19.7236 23.6898C19.6041 23.5614 19.4746 23.4917 19.2991 23.5155C19.3266 23.4412 19.3487 23.3642 19.3827 23.2926C19.7971 22.426 20.1701 21.5419 20.4881 20.6348C20.5064 20.5816 20.5358 20.5312 20.5597 20.4798V20.4789Z" fill="#DB6435"/>
<path d="M15.4391 26.7101C15.4134 26.6477 15.4042 26.5707 15.3601 26.5248C15.0587 26.2112 14.7638 25.8893 14.4027 25.6407C14.3512 25.605 14.275 25.605 14.2097 25.5884C14.2437 25.5288 14.275 25.4674 14.3126 25.4105C14.841 24.6145 15.3362 23.7991 15.7883 22.9572C15.8149 22.9068 15.8508 22.8609 15.882 22.8132C15.9362 22.8297 15.9996 22.8325 16.0419 22.8646C16.1954 22.9801 16.3479 23.0985 16.4894 23.2278C16.7219 23.4424 16.9461 23.6662 17.1739 23.8863C17.1473 23.9486 17.1252 24.0137 17.0931 24.0734C16.6208 24.9345 16.1035 25.7691 15.5522 26.5826C15.5209 26.6285 15.4777 26.667 15.4401 26.7092L15.4391 26.7101Z" fill="#D24F33"/>
<path d="M29.3336 32.9047C29.4264 32.901 29.5054 32.923 29.5844 32.9808C29.7856 33.1275 29.9703 33.2917 30.1422 33.4705C30.2359 33.5678 30.3351 33.6613 30.4298 33.7585C30.495 33.8255 30.5676 33.8741 30.665 33.8768C30.6411 33.9282 30.6218 33.9832 30.5915 34.0309C30.0576 34.8481 29.5228 35.6643 28.9872 36.4805C28.9623 36.5181 28.9265 36.5484 28.8962 36.5823C28.7896 36.4971 28.6766 36.4182 28.5783 36.3256C28.3531 36.1137 28.1473 35.8835 27.891 35.7037C27.7908 35.6331 27.6952 35.5909 27.5776 35.5882C27.6116 35.5295 27.642 35.469 27.6787 35.4121C28.1951 34.6206 28.7124 33.8301 29.2306 33.0395C29.261 32.9927 29.2986 32.9505 29.3336 32.9056V32.9047Z" fill="#D45534"/>
<path d="M27.4843 29.454C27.6138 29.4365 27.6974 29.5108 27.7801 29.5952C28.0209 29.8392 28.2653 30.0804 28.5079 30.3234C28.5887 30.4041 28.6641 30.494 28.7936 30.494C28.7771 30.5362 28.7661 30.582 28.7431 30.6206C28.2441 31.4432 27.7443 32.265 27.2435 33.0867C27.2196 33.1252 27.1847 33.1564 27.1553 33.1912C27.0276 33.1931 26.9449 33.1133 26.8631 33.0308C26.6362 32.8033 26.4046 32.5795 26.1822 32.3484C26.0876 32.2494 25.9792 32.2035 25.8459 32.2063C25.8836 32.1356 25.9176 32.0632 25.959 31.9944C26.4349 31.1956 26.9127 30.3968 27.3896 29.5989C27.419 29.5494 27.4521 29.5026 27.4833 29.4549L27.4843 29.454Z" fill="#D65934"/>
<path d="M5.40761 23.3185C5.40485 23.2204 5.35064 23.1516 5.28448 23.0865C5.05201 22.8563 4.81954 22.6243 4.58891 22.3922C4.48141 22.2849 4.35644 22.2152 4.20483 22.1951C4.24434 22.1391 4.27926 22.0795 4.32337 22.0281C4.89673 21.3696 5.43885 20.6873 5.93595 19.9683C5.98097 19.9032 6.0361 19.8454 6.08664 19.7839C6.18771 19.7931 6.29614 19.7665 6.38343 19.8417C6.55709 19.9894 6.73627 20.1315 6.9035 20.2865C7.06981 20.4406 7.2251 20.6075 7.38498 20.768C7.07532 21.2082 6.77486 21.6567 6.45234 22.0877C6.19139 22.4363 5.90379 22.7664 5.62538 23.1012C5.56014 23.1791 5.48112 23.2461 5.40853 23.3185H5.40761Z" fill="#C93C31"/>
<path d="M11.5353 10.4865C11.8606 10.7837 12.1381 11.1331 12.5019 11.3899C12.5874 11.4504 12.6618 11.5201 12.6636 11.6357C12.6177 11.6861 12.5773 11.7439 12.5249 11.787C11.8357 12.3611 11.3442 13.0948 10.848 13.8267C10.7901 13.912 10.7285 13.9936 10.6679 14.0761C10.6624 13.9652 10.5971 13.889 10.5227 13.8157C10.3288 13.624 10.1258 13.4396 9.94659 13.2351C9.79774 13.0655 9.62775 12.9903 9.40723 13.0187C9.4256 12.9774 9.43755 12.9325 9.46144 12.8949C10.0173 12.0355 10.6697 11.2569 11.4241 10.5645C11.4572 10.5342 11.4985 10.5122 11.5353 10.4856V10.4865Z" fill="#DB6435"/>
<path d="M28.3396 40.1449C28.5224 40.132 28.6529 40.2146 28.7944 40.331C29.0765 40.5631 29.3347 40.818 29.5993 41.0684C29.6315 41.0987 29.6783 41.1124 29.7178 41.1335C29.3328 41.5994 28.9552 42.0717 28.5592 42.5285C28.2982 42.8293 28.0115 43.1072 27.7359 43.3952C27.5062 43.176 27.2737 42.9586 27.0467 42.7367C26.9245 42.6165 26.8032 42.5 26.6415 42.4303C26.5845 42.4056 26.5441 42.3414 26.4963 42.2955C26.5211 42.2579 26.5423 42.2167 26.5726 42.1846C27.1414 41.5756 27.6789 40.9409 28.199 40.2916C28.2412 40.2393 28.2927 40.1935 28.3396 40.1449Z" fill="#C93C31"/>
<path d="M18.9246 30.5027C18.9512 30.4523 18.9742 30.4 19.0063 30.3532C19.4961 29.6287 19.9858 28.9051 20.4765 28.1815C20.5022 28.1439 20.5325 28.109 20.561 28.0732C20.7319 28.0934 20.8477 28.2026 20.9662 28.3144C21.2162 28.5501 21.4284 28.8253 21.7197 29.0188C21.7666 29.05 21.7758 29.138 21.8024 29.1995C21.784 29.2407 21.7702 29.2848 21.7454 29.3224C21.2557 30.0414 20.765 30.7604 20.2734 31.4785C20.2422 31.5244 20.1972 31.562 20.1586 31.6042C20.1117 31.573 20.0593 31.5482 20.0189 31.5106C19.8131 31.318 19.621 31.1126 19.3895 30.9448C19.2177 30.82 19.078 30.6522 18.9246 30.5036V30.5027Z" fill="#CF4933"/>
<path d="M17.173 23.8873C16.9451 23.6672 16.7219 23.4434 16.4885 23.2288C16.347 23.0985 16.1944 22.9811 16.041 22.8656C15.9987 22.8335 15.9353 22.8307 15.8811 22.8142C15.8967 22.772 15.9087 22.7271 15.9298 22.6868C16.3617 21.8595 16.7568 21.0148 17.1059 20.15C17.1188 20.1188 17.1427 20.0931 17.1611 20.0647C17.2217 20.0922 17.2943 20.106 17.3412 20.1482C17.6379 20.4132 17.9301 20.6819 18.2205 20.9534C18.3059 21.0332 18.3868 21.1093 18.5127 21.1093C18.4125 21.3523 18.3243 21.6018 18.2104 21.8384C17.909 22.4685 17.5966 23.094 17.2869 23.7194C17.2575 23.78 17.2107 23.8313 17.1721 23.8873H17.173Z" fill="#D65934"/>
<path d="M19.2989 23.5142C19.4744 23.4903 19.604 23.56 19.7234 23.6884C19.9265 23.9076 20.1442 24.1121 20.3547 24.3231C20.4364 24.4047 20.5136 24.4918 20.6441 24.49C20.5173 24.7449 20.4006 25.0063 20.2609 25.2539C19.9292 25.84 19.5865 26.4196 19.2456 27.0011C19.2061 27.0689 19.1528 27.1285 19.1059 27.1918C19.0572 27.1295 19.0159 27.0588 18.958 27.0047C18.6741 26.7397 18.3856 26.481 18.1007 26.216C18.0263 26.1463 17.9399 26.1362 17.8462 26.1371C17.8692 26.0858 17.8866 26.0317 17.916 25.984C18.3865 25.2163 18.8202 24.4294 19.2235 23.6251C19.2438 23.5857 19.2732 23.5508 19.298 23.5142H19.2989Z" fill="#D45534"/>
<path d="M33.0619 25.1724C33.219 25.1577 33.3403 25.2082 33.4616 25.3191C33.7317 25.5649 34.0166 25.7942 34.2702 26.0583C34.3133 26.1024 34.3905 26.1143 34.4512 26.1409C34.3657 26.3775 34.2867 26.616 34.1948 26.8498C34.0267 27.2763 33.8438 27.6972 33.6793 28.1255C33.4322 28.7675 32.7357 28.7162 32.3902 28.4548C32.1458 28.2704 32.0805 28.0008 32.1228 27.7147C32.1522 27.5129 32.211 27.3111 32.2836 27.1195C32.4812 26.5939 32.6916 26.0721 32.8992 25.5503C32.9498 25.4228 33.0077 25.299 33.0619 25.1733V25.1724Z" fill="#E37737"/>
<path d="M11.9037 15.2991C12.3787 15.6237 12.749 16.064 13.1735 16.4436C12.8602 17.2333 12.5478 18.0229 12.2308 18.8117C12.1803 18.9382 12.1104 19.0574 12.0498 19.1794C12.0231 19.1427 12.0048 19.0932 11.9689 19.0721C11.7796 18.9584 11.64 18.8025 11.5141 18.6209C11.425 18.4925 11.2982 18.387 11.1732 18.2889C11.0492 18.1926 10.9168 18.0926 10.7395 18.1311C10.9876 17.4589 11.2256 16.783 11.4884 16.1171C11.6005 15.8338 11.7631 15.5715 11.9037 15.2991Z" fill="#D65934"/>
<path d="M21.8031 29.1998C21.7765 29.1383 21.7673 29.0494 21.7204 29.0191C21.4292 28.8256 21.2169 28.5504 20.967 28.3147C20.8484 28.2029 20.7327 28.0937 20.5618 28.0735C20.5691 28.0525 20.5728 28.0286 20.5838 28.0093C21.0377 27.217 21.4935 26.4246 21.9483 25.6331C21.9593 25.6138 21.9796 25.6001 21.9952 25.5845C22.257 25.6578 22.4601 25.822 22.6025 26.0421C22.744 26.2613 22.982 26.3558 23.1557 26.53C23.1869 26.5612 23.2632 26.5475 23.3192 26.5539C23.299 26.6071 23.2843 26.6621 23.2586 26.7125C22.8405 27.515 22.3912 28.3001 21.9116 29.0686C21.8822 29.1163 21.8408 29.1567 21.8041 29.1998H21.8031Z" fill="#D65934"/>
<path d="M17.8468 26.1373C17.9396 26.1363 18.026 26.1464 18.1013 26.2161C18.3853 26.4803 18.6747 26.7398 18.9586 27.0049C19.0156 27.0581 19.0579 27.1287 19.1066 27.192C19.0036 27.3662 18.9081 27.5469 18.7951 27.7147C18.4101 28.2842 18.0196 28.8492 17.629 29.4141C17.5978 29.46 17.5519 29.4958 17.5123 29.537C17.4793 29.4673 17.4618 29.3839 17.4113 29.3307C17.21 29.117 17.0134 28.895 16.7855 28.7125C16.6422 28.5979 16.5191 28.4292 16.3096 28.4099C16.3243 28.3787 16.3344 28.3448 16.3528 28.3173C16.8333 27.6056 17.3148 26.8939 17.7972 26.1831C17.8091 26.1648 17.8303 26.1529 17.8468 26.1373Z" fill="#CF4933"/>
<path d="M27.5763 35.5879C27.6939 35.5906 27.7895 35.6328 27.8897 35.7034C28.1451 35.8832 28.3518 36.1134 28.577 36.3253C28.6762 36.4188 28.7883 36.4968 28.8949 36.582C28.781 36.738 28.6661 36.893 28.5531 37.0498C28.4878 37.1406 28.429 37.2369 28.361 37.3258C27.9871 37.8156 27.6113 38.3044 27.2364 38.7932C27.1472 38.7254 27.0508 38.6658 26.9708 38.5896C26.7668 38.3943 26.5638 38.198 26.3726 37.9908C26.2486 37.8559 26.1108 37.7816 25.927 37.8018C25.9491 37.7624 25.9683 37.7211 25.995 37.6853C26.4903 37.0195 26.9864 36.3537 27.4835 35.6879C27.5102 35.6521 27.5451 35.6218 27.5763 35.5888V35.5879Z" fill="#CF4933"/>
<path d="M18.9249 30.5032C19.0783 30.6517 19.218 30.8196 19.3898 30.9443C19.6213 31.1121 19.8134 31.3176 20.0192 31.5102C20.0596 31.5478 20.112 31.5725 20.1589 31.6037C20.1157 31.6707 20.078 31.7422 20.0284 31.8037C19.5295 32.431 19.0287 33.0574 18.527 33.6828C18.4921 33.7259 18.4452 33.7599 18.4039 33.7984C18.3414 33.5673 18.187 33.3994 18.0161 33.2463C17.8719 33.117 17.7184 32.9959 17.5732 32.8675C17.4574 32.7657 17.3334 32.6896 17.1726 32.7006C17.3297 32.5053 17.4887 32.3108 17.644 32.1136C18.0051 31.656 18.3644 31.1956 18.7255 30.738C18.7889 30.6573 18.8578 30.582 18.9249 30.5041V30.5032Z" fill="#CB3F32"/>
<path d="M9.40778 13.0195C9.6283 12.9911 9.79829 13.0663 9.94714 13.236C10.1272 13.4405 10.3294 13.6248 10.5233 13.8165C10.5977 13.8899 10.6638 13.966 10.6684 14.077C10.6629 14.099 10.662 14.1238 10.651 14.143C10.254 14.8189 9.93612 15.5315 9.66138 16.2643C9.64117 16.3175 9.60993 16.3661 9.5842 16.4166C9.32876 16.3184 9.15601 16.1268 8.99429 15.9149C8.79399 15.6526 8.57438 15.4059 8.24268 15.3004C8.24819 15.2665 8.24819 15.2307 8.26105 15.2005C8.56519 14.4833 8.90057 13.7817 9.32233 13.1241C9.34622 13.0865 9.37929 13.0544 9.40778 13.0205V13.0195Z" fill="#D65934"/>
<path d="M7.40758 41.8765C7.83301 42.1351 8.14174 42.5221 8.49366 42.8624C8.54144 42.9082 8.56901 42.9752 8.60668 43.032C8.34481 43.2173 8.08386 43.4044 7.82015 43.5869C7.4425 43.8483 7.06118 44.1032 6.68537 44.3665C6.39409 44.571 6.05871 44.5453 5.82624 44.349C5.55702 44.1225 5.45686 43.7703 5.57723 43.4484C5.64706 43.2613 5.76008 43.1017 5.91812 42.9825C6.41247 42.6111 6.91049 42.2451 7.40758 41.8765Z" fill="#BB2337"/>
<path d="M26.4963 42.2946C26.5441 42.3404 26.5845 42.4046 26.6415 42.4294C26.8032 42.5 26.9236 42.6165 27.0467 42.7357C27.2737 42.9576 27.5061 43.175 27.7358 43.3942C27.7322 43.4052 27.7313 43.418 27.7239 43.4263C27.2801 43.9004 26.839 44.3773 26.3879 44.8442C26.296 44.9395 26.1692 45.012 26.0452 45.0643C25.5214 45.288 25.0262 44.8854 24.9425 44.492C24.9049 44.3131 24.9324 44.1453 25.0078 43.9912C25.0776 43.8491 25.1649 43.7097 25.2706 43.5914C25.6464 43.1732 26.0332 42.765 26.4164 42.3542C26.4393 42.3294 26.4697 42.3129 26.4972 42.2927L26.4963 42.2946Z" fill="#C53230"/>
<path d="M12.5094 5.76435C12.9312 6.03031 13.2555 6.40541 13.6083 6.74933C13.68 6.81904 13.7076 6.90066 13.7011 6.99787C13.6727 7.01622 13.646 7.0419 13.6148 7.0529C13.239 7.18864 12.9174 7.42342 12.5792 7.62519C12.2457 7.8242 11.9278 8.04798 11.6025 8.25984C11.5648 8.2846 11.5235 8.30294 11.484 8.32495C11.1311 7.93426 10.7948 7.5243 10.3354 7.24641C10.3179 7.23633 10.3115 7.20881 10.2996 7.18864C10.5559 6.99788 10.8031 6.79519 11.0696 6.6191C11.4702 6.35497 11.8827 6.10918 12.2916 5.85972C12.3587 5.81845 12.4368 5.79553 12.5094 5.76343V5.76435Z" fill="#E27537"/>
<path d="M25.928 37.8006C26.1118 37.7805 26.2497 37.8547 26.3737 37.9896C26.5648 38.1968 26.7679 38.3931 26.9719 38.5884C27.0518 38.6655 27.1483 38.7251 27.2374 38.792C27.2328 38.8021 27.2301 38.815 27.2227 38.8232C27.0399 39.0259 26.8919 39.2552 26.7173 39.4643C26.5336 39.6844 26.3507 39.9054 26.1651 40.1246C25.9869 40.3346 25.8068 40.5428 25.6267 40.751C25.612 40.7675 25.5899 40.7776 25.5715 40.7905C25.4254 40.7345 25.3427 40.6135 25.2472 40.4988C25.0937 40.3163 24.9302 40.1402 24.7519 39.9825C24.6159 39.8623 24.4505 39.7761 24.2539 39.7972C24.3247 39.7073 24.3927 39.6165 24.4652 39.5285C24.887 39.0158 25.3097 38.5022 25.7342 37.9914C25.7921 37.9217 25.8628 37.8639 25.9271 37.7997L25.928 37.8006Z" fill="#C93C31"/>
<path d="M18.5142 21.1084C18.3883 21.1084 18.3066 21.0323 18.222 20.9525C17.9317 20.681 17.6386 20.4114 17.3427 20.1472C17.2958 20.1051 17.2232 20.0913 17.1626 20.0638C17.3464 19.5585 17.5154 19.0485 17.7176 18.5505C17.8527 18.2176 18.0824 17.9434 18.3902 17.7444C18.4517 17.9021 18.574 18.0122 18.7063 18.1011C18.9966 18.2974 19.2107 18.5698 19.456 18.811C19.4919 18.8468 19.4965 18.9146 19.5149 18.9678C19.2741 19.1742 19.1363 19.4411 19.0325 19.7373C18.8717 20.1986 18.6888 20.6517 18.5151 21.1084H18.5142Z" fill="#DB6435"/>
<path d="M16.3103 28.4102C16.5198 28.4294 16.642 28.5982 16.7862 28.7128C17.0141 28.8953 17.2107 29.1173 17.412 29.3309C17.4625 29.3841 17.48 29.4676 17.513 29.5373C17.3623 29.7482 17.219 29.9656 17.0591 30.1692C16.7191 30.6002 16.3709 31.0249 16.0245 31.4504C15.9969 31.4853 15.9565 31.51 15.9225 31.5394C15.9197 31.4412 15.8665 31.3697 15.7994 31.3037C15.588 31.0955 15.3831 30.8809 15.1672 30.6764C15.0441 30.5599 14.9118 30.4508 14.7354 30.4177C14.9035 30.2013 15.0689 29.9839 15.2398 29.7703C15.4181 29.5474 15.6 29.3273 15.781 29.1063C15.8012 29.0815 15.8205 29.0558 15.8407 29.0311C15.9969 28.8238 16.1541 28.6174 16.3103 28.4102Z" fill="#CB3F32"/>
<path d="M25.8464 32.2057C25.9797 32.2029 26.0872 32.2488 26.1827 32.3478C26.4051 32.5799 26.6366 32.8027 26.8636 33.0302C26.9454 33.1127 27.0281 33.1925 27.1558 33.1907C26.8259 33.6749 26.5034 34.1637 26.1634 34.6406C26.0651 34.7782 25.9291 34.8947 25.7941 34.9992C25.6057 35.1441 25.3916 35.1561 25.1757 35.0506C25.1444 35.0359 25.1141 35.0203 25.0838 35.0038C24.6262 34.7507 24.5113 34.4159 24.719 33.9354C24.7558 33.851 24.7962 33.7675 24.8467 33.6914C25.1784 33.1953 25.5138 32.7009 25.8473 32.2066L25.8464 32.2057Z" fill="#D24F33"/>
<path d="M17.172 32.7005C17.3337 32.6895 17.4578 32.7656 17.5726 32.8674C17.7178 32.9958 17.8713 33.116 18.0155 33.2462C18.1864 33.3994 18.3417 33.5672 18.4033 33.7983C17.999 34.2587 17.5965 34.7219 17.1886 35.1795C17.0517 35.3327 16.8982 35.4702 16.7521 35.6151C16.7475 35.517 16.697 35.4445 16.629 35.3785C16.4167 35.1694 16.2109 34.9539 15.995 34.7494C15.8719 34.6329 15.7386 34.5219 15.5613 34.4898C15.61 34.4275 15.6559 34.3614 15.7092 34.3027C16.1622 33.7992 16.617 33.2966 17.0719 32.7941C17.1022 32.7601 17.138 32.7317 17.172 32.7014V32.7005Z" fill="#C53230"/>
<path d="M7.38452 20.7677C7.22464 20.6062 7.07027 20.4402 6.90304 20.2862C6.73581 20.1312 6.55755 19.989 6.38297 19.8414C6.29476 19.7671 6.18634 19.7937 6.08618 19.7836C6.12385 19.7139 6.15785 19.6414 6.20104 19.5745C6.58971 18.9783 6.94163 18.362 7.2568 17.7237C7.28161 17.6733 7.31469 17.6265 7.34409 17.5779C7.53061 17.5696 7.66936 17.6632 7.7934 17.7898C8.01025 18.0089 8.23078 18.2245 8.44671 18.4446C8.50184 18.5005 8.54411 18.5693 8.59281 18.6326C8.58454 18.6656 8.58178 18.7014 8.56708 18.7307C8.22802 19.403 7.8614 20.0596 7.44976 20.6906C7.43138 20.719 7.40565 20.7429 7.3836 20.7686L7.38452 20.7677Z" fill="#CF4933"/>
<path d="M24.254 39.7974C24.4507 39.7753 24.6161 39.8625 24.752 39.9826C24.9303 40.1404 25.0948 40.3165 25.2473 40.499C25.3429 40.6136 25.4256 40.7347 25.5717 40.7906C25.4118 40.9795 25.2574 41.173 25.0911 41.3556C24.7153 41.7692 24.3331 42.1773 23.9526 42.5863C23.9306 42.6102 23.8984 42.6258 23.8709 42.645C23.8709 42.5166 23.7781 42.4442 23.6981 42.3653C23.383 42.0581 23.0669 41.7517 22.7517 41.4445C22.7774 41.4069 22.7986 41.3666 22.8289 41.3335C23.2773 40.8429 23.7266 40.3531 24.1768 39.8634C24.1998 39.8386 24.2283 39.8194 24.255 39.7974H24.254Z" fill="#C53230"/>
<path d="M14.7344 30.4175C14.9109 30.4496 15.0432 30.5596 15.1663 30.6761C15.3813 30.8797 15.5871 31.0943 15.7985 31.3034C15.8655 31.3695 15.9179 31.441 15.9216 31.5391C15.7314 31.7666 15.5495 32.0004 15.351 32.2196C15.0294 32.5745 14.6968 32.9203 14.3687 33.2697C14.2796 33.2 14.184 33.1386 14.1032 33.0606C13.89 32.8552 13.6778 32.6488 13.4756 32.4324C13.3635 32.3123 13.2367 32.2682 13.0796 32.2829C13.1127 32.238 13.143 32.1894 13.1807 32.1481C13.6566 31.6097 14.1344 31.0714 14.6122 30.534C14.6499 30.4918 14.694 30.4569 14.7344 30.4184V30.4175Z" fill="#C53230"/>
<path d="M7.28407 13.2548C7.25283 13.208 7.2271 13.1548 7.18759 13.1153C6.89907 12.8237 6.60688 12.5366 6.31928 12.2441C6.23291 12.156 6.13551 12.1148 6.01514 12.1212C6.02524 12.0882 6.028 12.0515 6.04546 12.024C6.33949 11.5718 6.62985 11.116 6.93491 10.6703C7.10214 10.4263 7.34839 10.3163 7.64885 10.3291C8.22773 10.3539 8.58241 10.8858 8.37475 11.4242C8.34626 11.4985 8.31135 11.5727 8.26908 11.6406C7.94197 12.1799 7.6121 12.7182 7.28315 13.2566L7.28407 13.2548Z" fill="#DB6435"/>
<path d="M10.7398 18.131C10.9172 18.0925 11.0495 18.1925 11.1735 18.2888C11.2985 18.386 11.4253 18.4924 11.5144 18.6208C11.6403 18.8014 11.78 18.9583 11.9692 19.072C12.0051 19.0931 12.0235 19.1426 12.0501 19.1793C11.8829 19.67 11.6541 20.1331 11.3867 20.5752C11.1487 20.9686 10.8446 21.0337 10.3989 20.9429C10.0075 20.8631 9.75665 20.3982 9.85404 19.9965C9.87058 19.9295 9.89264 19.8635 9.92204 19.8011C10.1931 19.2435 10.4669 18.6877 10.7398 18.131Z" fill="#D24F33"/>
<path d="M7.26137 26.2321C7.17132 26.1651 7.073 26.1065 6.99123 26.0294C6.80929 25.8579 6.64114 25.6699 6.45554 25.5021C6.31495 25.3746 6.17345 25.2315 5.95752 25.2416C5.98233 25.204 6.00346 25.1636 6.03286 25.1306C6.48034 24.6143 6.92874 24.0989 7.37714 23.5834C7.42125 23.5321 7.47086 23.4853 7.51773 23.4358C7.69598 23.4587 7.82738 23.5569 7.9551 23.677C8.20962 23.9173 8.47425 24.1475 8.73612 24.3804C8.76093 24.4024 8.79677 24.4107 8.82709 24.4254C8.35204 25.0683 7.84484 25.6827 7.26229 26.2321H7.26137Z" fill="#C53230"/>
<path d="M8.59394 18.6329C8.54616 18.5696 8.50297 18.5017 8.44784 18.4449C8.23191 18.2248 8.01138 18.0092 7.79453 17.79C7.66957 17.6644 7.53174 17.5708 7.34521 17.5782C7.40862 17.4214 7.47569 17.2654 7.53634 17.1068C7.72195 16.6189 7.90388 16.1291 8.09132 15.6403C8.13543 15.5247 8.1924 15.4129 8.24293 15.3C8.57464 15.4055 8.79332 15.6522 8.99455 15.9145C9.15627 16.1255 9.3281 16.3181 9.58446 16.4162C9.37863 16.9114 9.18016 17.4103 8.96515 17.9019C8.85581 18.1514 8.7189 18.3889 8.59485 18.632L8.59394 18.6329Z" fill="#D24F33"/>
<path d="M4.91156 39.5986C5.09533 39.594 5.23959 39.6756 5.36455 39.8022C5.56486 40.0049 5.76609 40.2066 5.97008 40.4056C6.05094 40.4845 6.13915 40.557 6.2246 40.6322C5.79458 40.9752 5.37007 41.3237 4.93178 41.6557C4.80773 41.7492 4.64969 41.8162 4.49716 41.8529C4.15075 41.9354 3.86407 41.8208 3.65365 41.531C3.44416 41.2439 3.40465 40.9403 3.6022 40.6349C3.68214 40.512 3.78046 40.391 3.89715 40.3038C4.22794 40.059 4.57251 39.8324 4.91156 39.5986Z" fill="#BB2337"/>
<path d="M12.4614 46.3792C12.4899 46.3966 12.5184 46.4278 12.5478 46.4287C12.7463 46.4388 12.8859 46.5479 13.0173 46.6818C13.225 46.8946 13.4363 47.1028 13.6477 47.3119C13.6798 47.343 13.7193 47.3678 13.7552 47.3953C13.315 47.7631 12.8823 48.1409 12.4311 48.4959C12.1141 48.7453 11.7585 48.7417 11.4378 48.528C11.1291 48.3225 11.0106 47.9795 11.1217 47.6237C11.1778 47.443 11.2743 47.2871 11.4222 47.1715C11.7659 46.9037 12.115 46.6424 12.4614 46.3792Z" fill="#BB2337"/>
<path d="M18.9706 8.9155C18.9366 8.6853 18.8098 8.52022 18.6169 8.39641C18.5507 8.35422 18.4818 8.30378 18.4386 8.2405C18.2567 7.97086 18.0343 7.74984 17.7366 7.6086C17.665 7.57467 17.6025 7.52422 17.5354 7.48112C17.8129 7.35731 18.1161 7.34722 18.4092 7.3142C18.8889 7.26101 19.3722 7.25 19.8546 7.22157C20.0191 7.21148 20.1771 7.24267 20.3232 7.31695C20.6328 7.4747 20.7652 7.73791 20.756 8.07816C20.7468 8.42117 20.5943 8.67705 20.2699 8.80086C20.1339 8.85313 19.9805 8.86873 19.8325 8.87973C19.5458 8.89991 19.2582 8.90449 18.9706 8.91642V8.9155Z" fill="#EB8B39"/>
<path d="M23.3182 26.554C23.2622 26.5476 23.1859 26.5613 23.1546 26.5301C22.981 26.3559 22.743 26.2605 22.6015 26.0422C22.46 25.823 22.2569 25.658 21.9941 25.5846C22.1917 25.1838 22.3727 24.7748 22.5923 24.3859C22.8027 24.0117 23.252 23.8668 23.6389 24.0145C23.8805 24.1062 24.0395 24.2749 24.0845 24.5391C24.124 24.7711 24.1158 24.9967 24.0092 25.2113C23.8006 25.6332 23.592 26.0551 23.3816 26.476C23.3669 26.5054 23.3393 26.5283 23.3182 26.5549V26.554Z" fill="#DB6435"/>
<path d="M10.3003 7.18872C10.3123 7.20798 10.3187 7.23549 10.3362 7.2465C10.7956 7.52439 11.1319 7.93434 11.4847 8.32503C11.1273 8.63044 10.7708 8.93767 10.4115 9.24124C10.3417 9.29993 10.2636 9.35129 10.1827 9.39348C9.66726 9.65761 9.00201 9.26142 8.98088 8.67996C8.97536 8.53964 8.99374 8.40024 9.07828 8.2856C9.18027 8.14711 9.27858 8.00037 9.40722 7.89032C9.69574 7.64545 10.0017 7.42075 10.3003 7.18872Z" fill="#DF6D36"/>
<path d="M9.11032 44.7678C9.31522 44.7723 9.4751 44.865 9.61385 45.0108C9.80956 45.2144 10.0117 45.4125 10.2129 45.6097C10.2846 45.6803 10.3645 45.7436 10.4408 45.8096C10.0999 46.0783 9.76178 46.3489 9.41721 46.6121C9.33727 46.6735 9.23988 46.7176 9.14432 46.7533C8.76759 46.8946 8.37524 46.7708 8.14461 46.4397C7.98748 46.2141 7.99024 45.9692 8.0711 45.7188C8.13266 45.528 8.25028 45.3731 8.40924 45.2547C8.60128 45.1126 8.8025 44.9824 8.99914 44.8466C9.02119 44.8292 9.04324 44.8118 9.06529 44.7944C9.07265 44.7733 9.08735 44.7641 9.1094 44.7668L9.11032 44.7678Z" fill="#BB2337"/>
<path d="M8.82621 24.4253C8.79589 24.4106 8.76005 24.4015 8.73524 24.3804C8.47337 24.1474 8.20874 23.9172 7.95422 23.677C7.8265 23.5568 7.69418 23.4587 7.51685 23.4357C7.75299 23.1258 7.9873 22.8139 8.22712 22.5067C8.27581 22.4443 8.33738 22.3893 8.39986 22.3398C8.66816 22.1261 8.95668 22.0894 9.26817 22.2444C9.58058 22.3994 9.72117 22.6553 9.71749 22.9955C9.71565 23.1955 9.66328 23.3844 9.53832 23.5421C9.30401 23.8393 9.06327 24.1309 8.82529 24.4253H8.82621Z" fill="#CB3F32"/>
<path d="M40.2898 35.1051V34.6364H43.5625V35.1051H42.1903V39H41.6619V35.1051H40.2898ZM44.8127 37.0312V39H44.3098V34.6364H44.8127V36.2386H44.8553C44.932 36.0696 45.0471 35.9354 45.2005 35.8359C45.3553 35.7351 45.5613 35.6847 45.8184 35.6847C46.0414 35.6847 46.2367 35.7294 46.4043 35.8189C46.5719 35.907 46.7019 36.0426 46.7942 36.2259C46.888 36.4077 46.9348 36.6392 46.9348 36.9205V39H46.432V36.9545C46.432 36.6946 46.3645 36.4936 46.2296 36.3516C46.0961 36.2081 45.9107 36.1364 45.6735 36.1364C45.5087 36.1364 45.361 36.1712 45.2303 36.2408C45.101 36.3104 44.9988 36.4119 44.9235 36.5455C44.8496 36.679 44.8127 36.8409 44.8127 37.0312ZM49.2269 39.0682C48.9116 39.0682 48.6396 38.9986 48.4109 38.8594C48.1836 38.7188 48.0082 38.5227 47.8846 38.2713C47.7624 38.0185 47.7013 37.7244 47.7013 37.3892C47.7013 37.054 47.7624 36.7585 47.8846 36.5028C48.0082 36.2457 48.18 36.0455 48.4002 35.902C48.6218 35.7571 48.8803 35.6847 49.1758 35.6847C49.3462 35.6847 49.5146 35.7131 49.6808 35.7699C49.8469 35.8267 49.9982 35.919 50.1346 36.0469C50.271 36.1733 50.3796 36.3409 50.4606 36.5497C50.5415 36.7585 50.582 37.0156 50.582 37.321V37.5341H48.0593V37.0994H50.0707C50.0707 36.9148 50.0337 36.75 49.9599 36.6051C49.8874 36.4602 49.7837 36.3459 49.6488 36.2621C49.5153 36.1783 49.3576 36.1364 49.1758 36.1364C48.9755 36.1364 48.8022 36.1861 48.6559 36.2855C48.511 36.3835 48.3995 36.5114 48.3214 36.669C48.2433 36.8267 48.2042 36.9957 48.2042 37.1761V37.4659C48.2042 37.7131 48.2468 37.9226 48.332 38.0945C48.4187 38.2649 48.5387 38.3949 48.6921 38.4844C48.8455 38.5724 49.0238 38.6165 49.2269 38.6165C49.359 38.6165 49.4783 38.598 49.5849 38.5611C49.6928 38.5227 49.7859 38.4659 49.864 38.3906C49.9421 38.3139 50.0025 38.2187 50.0451 38.1051L50.5309 38.2415C50.4798 38.4062 50.3938 38.5511 50.2731 38.6761C50.1523 38.7997 50.0032 38.8963 49.8256 38.9659C49.6481 39.0341 49.4485 39.0682 49.2269 39.0682ZM53.1026 39V34.6364H54.5771C54.9194 34.6364 55.1992 34.6982 55.4165 34.8217C55.6353 34.9439 55.7972 35.1094 55.9023 35.3182C56.0075 35.527 56.06 35.7599 56.06 36.017C56.06 36.2741 56.0075 36.5078 55.9023 36.718C55.7987 36.9283 55.6381 37.0959 55.4208 37.2209C55.2035 37.3445 54.9251 37.4062 54.5856 37.4062H53.5288V36.9375H54.5685C54.8029 36.9375 54.9911 36.897 55.1332 36.8161C55.2752 36.7351 55.3782 36.6257 55.4421 36.4879C55.5075 36.3487 55.5401 36.1918 55.5401 36.017C55.5401 35.8423 55.5075 35.6861 55.4421 35.5483C55.3782 35.4105 55.2745 35.3026 55.131 35.2244C54.9876 35.1449 54.7972 35.1051 54.56 35.1051H53.631V39H53.1026ZM57.3459 34.6364V39H56.843V34.6364H57.3459ZM59.2299 39.0767C59.0225 39.0767 58.8343 39.0376 58.6653 38.9595C58.4963 38.88 58.362 38.7656 58.2626 38.6165C58.1632 38.4659 58.1135 38.2841 58.1135 38.071C58.1135 37.8835 58.1504 37.7315 58.2243 37.6151C58.2981 37.4972 58.3968 37.4048 58.5204 37.3381C58.644 37.2713 58.7804 37.2216 58.9295 37.1889C59.0801 37.1548 59.2314 37.1278 59.3833 37.108C59.5822 37.0824 59.7434 37.0632 59.867 37.0504C59.992 37.0362 60.0829 37.0128 60.1397 36.9801C60.198 36.9474 60.2271 36.8906 60.2271 36.8097V36.7926C60.2271 36.5824 60.1696 36.419 60.0545 36.3026C59.9409 36.1861 59.7683 36.1278 59.5368 36.1278C59.2967 36.1278 59.1085 36.1804 58.9721 36.2855C58.8358 36.3906 58.7399 36.5028 58.6845 36.6222L58.2072 36.4517C58.2924 36.2528 58.4061 36.098 58.5481 35.9872C58.6916 35.875 58.8478 35.7969 59.0169 35.7528C59.1873 35.7074 59.3549 35.6847 59.5197 35.6847C59.6248 35.6847 59.7456 35.6974 59.8819 35.723C60.0197 35.7472 60.1525 35.7976 60.2804 35.8743C60.4096 35.951 60.5169 36.0668 60.6021 36.2216C60.6873 36.3764 60.7299 36.5838 60.7299 36.8438V39H60.2271V38.5568H60.2015C60.1674 38.6278 60.1106 38.7038 60.0311 38.7848C59.9515 38.8658 59.8457 38.9347 59.7136 38.9915C59.5815 39.0483 59.4203 39.0767 59.2299 39.0767ZM59.3066 38.625C59.5055 38.625 59.6731 38.5859 59.8095 38.5078C59.9473 38.4297 60.051 38.3288 60.1206 38.2053C60.1916 38.0817 60.2271 37.9517 60.2271 37.8153V37.3551C60.2058 37.3807 60.1589 37.4041 60.0865 37.4254C60.0154 37.4453 59.9331 37.4631 59.8393 37.4787C59.747 37.4929 59.6568 37.5057 59.5687 37.517C59.4821 37.527 59.4118 37.5355 59.3578 37.5426C59.2271 37.5597 59.1049 37.5874 58.9913 37.6257C58.8791 37.6626 58.7882 37.7187 58.7186 37.794C58.6504 37.8679 58.6163 37.9687 58.6163 38.0966C58.6163 38.2713 58.6809 38.4034 58.8102 38.4929C58.9409 38.581 59.1064 38.625 59.3066 38.625ZM62.9773 39.0682C62.6705 39.0682 62.4063 38.9957 62.1847 38.8509C61.9631 38.706 61.7926 38.5064 61.6733 38.2521C61.554 37.9979 61.4943 37.7074 61.4943 37.3807C61.4943 37.0483 61.5554 36.755 61.6776 36.5007C61.8011 36.245 61.973 36.0455 62.1932 35.902C62.4148 35.7571 62.6733 35.6847 62.9688 35.6847C63.1989 35.6847 63.4062 35.7273 63.5909 35.8125C63.7756 35.8977 63.9268 36.017 64.0447 36.1705C64.1626 36.3239 64.2358 36.5028 64.2642 36.7074H63.7614C63.723 36.5582 63.6378 36.4261 63.5057 36.3111C63.375 36.1946 63.1989 36.1364 62.9773 36.1364C62.7813 36.1364 62.6094 36.1875 62.4616 36.2898C62.3153 36.3906 62.201 36.5334 62.1186 36.718C62.0376 36.9013 61.9972 37.1165 61.9972 37.3636C61.9972 37.6165 62.0369 37.8366 62.1165 38.0241C62.1974 38.2116 62.3111 38.3572 62.4574 38.4609C62.6051 38.5646 62.7784 38.6165 62.9773 38.6165C63.108 38.6165 63.2266 38.5938 63.3331 38.5483C63.4396 38.5028 63.5298 38.4375 63.6037 38.3523C63.6776 38.267 63.7301 38.1648 63.7614 38.0455H64.2642C64.2358 38.2386 64.1655 38.4126 64.0533 38.5675C63.9425 38.7209 63.7955 38.843 63.6122 38.9339C63.4304 39.0234 63.2188 39.0682 62.9773 39.0682ZM66.3714 39.0682C66.0561 39.0682 65.7841 38.9986 65.5554 38.8594C65.3281 38.7188 65.1527 38.5227 65.0291 38.2713C64.907 38.0185 64.8459 37.7244 64.8459 37.3892C64.8459 37.054 64.907 36.7585 65.0291 36.5028C65.1527 36.2457 65.3246 36.0455 65.5447 35.902C65.7663 35.7571 66.0249 35.6847 66.3203 35.6847C66.4908 35.6847 66.6591 35.7131 66.8253 35.7699C66.9915 35.8267 67.1428 35.919 67.2791 36.0469C67.4155 36.1733 67.5241 36.3409 67.6051 36.5497C67.6861 36.7585 67.7266 37.0156 67.7266 37.321V37.5341H65.2038V37.0994H67.2152C67.2152 36.9148 67.1783 36.75 67.1044 36.6051C67.032 36.4602 66.9283 36.3459 66.7933 36.2621C66.6598 36.1783 66.5021 36.1364 66.3203 36.1364C66.12 36.1364 65.9467 36.1861 65.8004 36.2855C65.6555 36.3835 65.544 36.5114 65.4659 36.669C65.3878 36.8267 65.3487 36.9957 65.3487 37.1761V37.4659C65.3487 37.7131 65.3913 37.9226 65.4766 38.0945C65.5632 38.2649 65.6832 38.3949 65.8366 38.4844C65.9901 38.5724 66.1683 38.6165 66.3714 38.6165C66.5036 38.6165 66.6229 38.598 66.7294 38.5611C66.8374 38.5227 66.9304 38.4659 67.0085 38.3906C67.0866 38.3139 67.147 38.2187 67.1896 38.1051L67.6754 38.2415C67.6243 38.4062 67.5384 38.5511 67.4176 38.6761C67.2969 38.7997 67.1477 38.8963 66.9702 38.9659C66.7926 39.0341 66.593 39.0682 66.3714 39.0682ZM70.2472 39V34.6364H72.8636V35.1051H70.7756V36.5795H72.6676V37.0483H70.7756V39H70.2472ZM74.7898 39.0682C74.4943 39.0682 74.2351 38.9979 74.0121 38.8572C73.7905 38.7166 73.6172 38.5199 73.4922 38.267C73.3686 38.0142 73.3068 37.7187 73.3068 37.3807C73.3068 37.0398 73.3686 36.7422 73.4922 36.4879C73.6172 36.2337 73.7905 36.0362 74.0121 35.8956C74.2351 35.755 74.4943 35.6847 74.7898 35.6847C75.0852 35.6847 75.3438 35.755 75.5653 35.8956C75.7884 36.0362 75.9616 36.2337 76.0852 36.4879C76.2102 36.7422 76.2727 37.0398 76.2727 37.3807C76.2727 37.7187 76.2102 38.0142 76.0852 38.267C75.9616 38.5199 75.7884 38.7166 75.5653 38.8572C75.3438 38.9979 75.0852 39.0682 74.7898 39.0682ZM74.7898 38.6165C75.0142 38.6165 75.1989 38.5589 75.3438 38.4439C75.4886 38.3288 75.5959 38.1776 75.6655 37.9901C75.7351 37.8026 75.7699 37.5994 75.7699 37.3807C75.7699 37.1619 75.7351 36.9581 75.6655 36.7692C75.5959 36.5803 75.4886 36.4276 75.3438 36.3111C75.1989 36.1946 75.0142 36.1364 74.7898 36.1364C74.5653 36.1364 74.3807 36.1946 74.2358 36.3111C74.0909 36.4276 73.9837 36.5803 73.9141 36.7692C73.8445 36.9581 73.8097 37.1619 73.8097 37.3807C73.8097 37.5994 73.8445 37.8026 73.9141 37.9901C73.9837 38.1776 74.0909 38.3288 74.2358 38.4439C74.3807 38.5589 74.5653 38.6165 74.7898 38.6165ZM77.0403 39V35.7273H77.5261V36.2216H77.5602C77.6199 36.0597 77.7278 35.9283 77.8841 35.8274C78.0403 35.7266 78.2164 35.6761 78.4125 35.6761C78.4494 35.6761 78.4956 35.6768 78.551 35.6783C78.6064 35.6797 78.6483 35.6818 78.6767 35.6847V36.196C78.6596 36.1918 78.6206 36.1854 78.5595 36.1768C78.4998 36.1669 78.4366 36.1619 78.3699 36.1619C78.2108 36.1619 78.0687 36.1953 77.9437 36.2621C77.8201 36.3274 77.7221 36.4183 77.6497 36.5348C77.5787 36.6499 77.5431 36.7812 77.5431 36.929V39H77.0403ZM81.0284 39V34.6364H82.5028C82.8452 34.6364 83.125 34.6982 83.3423 34.8217C83.5611 34.9439 83.723 35.1094 83.8281 35.3182C83.9332 35.527 83.9858 35.7599 83.9858 36.017C83.9858 36.2741 83.9332 36.5078 83.8281 36.718C83.7244 36.9283 83.5639 37.0959 83.3466 37.2209C83.1293 37.3445 82.8509 37.4062 82.5114 37.4062H81.4545V36.9375H82.4943C82.7287 36.9375 82.9169 36.897 83.0589 36.8161C83.201 36.7351 83.304 36.6257 83.3679 36.4879C83.4332 36.3487 83.4659 36.1918 83.4659 36.017C83.4659 35.8423 83.4332 35.6861 83.3679 35.5483C83.304 35.4105 83.2003 35.3026 83.0568 35.2244C82.9134 35.1449 82.723 35.1051 82.4858 35.1051H81.5568V39H81.0284ZM86.0632 39.0682C85.7678 39.0682 85.5085 38.9979 85.2855 38.8572C85.0639 38.7166 84.8906 38.5199 84.7656 38.267C84.642 38.0142 84.5803 37.7187 84.5803 37.3807C84.5803 37.0398 84.642 36.7422 84.7656 36.4879C84.8906 36.2337 85.0639 36.0362 85.2855 35.8956C85.5085 35.755 85.7678 35.6847 86.0632 35.6847C86.3587 35.6847 86.6172 35.755 86.8388 35.8956C87.0618 36.0362 87.2351 36.2337 87.3587 36.4879C87.4837 36.7422 87.5462 37.0398 87.5462 37.3807C87.5462 37.7187 87.4837 38.0142 87.3587 38.267C87.2351 38.5199 87.0618 38.7166 86.8388 38.8572C86.6172 38.9979 86.3587 39.0682 86.0632 39.0682ZM86.0632 38.6165C86.2876 38.6165 86.4723 38.5589 86.6172 38.4439C86.7621 38.3288 86.8693 38.1776 86.9389 37.9901C87.0085 37.8026 87.0433 37.5994 87.0433 37.3807C87.0433 37.1619 87.0085 36.9581 86.9389 36.7692C86.8693 36.5803 86.7621 36.4276 86.6172 36.3111C86.4723 36.1946 86.2876 36.1364 86.0632 36.1364C85.8388 36.1364 85.6541 36.1946 85.5092 36.3111C85.3643 36.4276 85.2571 36.5803 85.1875 36.7692C85.1179 36.9581 85.0831 37.1619 85.0831 37.3807C85.0831 37.5994 85.1179 37.8026 85.1875 37.9901C85.2571 38.1776 85.3643 38.3288 85.5092 38.4439C85.6541 38.5589 85.8388 38.6165 86.0632 38.6165ZM90.6319 36.4602L90.1802 36.5881C90.1518 36.5128 90.1099 36.4396 90.0545 36.3686C90.0005 36.2962 89.9267 36.2365 89.8329 36.1896C89.7392 36.1428 89.6191 36.1193 89.4728 36.1193C89.2725 36.1193 89.1056 36.1655 88.9721 36.2578C88.84 36.3487 88.774 36.4645 88.774 36.6051C88.774 36.7301 88.8194 36.8288 88.9103 36.9013C89.0012 36.9737 89.1433 37.0341 89.3365 37.0824L89.8223 37.2017C90.1149 37.2727 90.3329 37.3814 90.4764 37.5277C90.6199 37.6726 90.6916 37.8594 90.6916 38.0881C90.6916 38.2756 90.6376 38.4432 90.5297 38.5909C90.4231 38.7386 90.274 38.8551 90.0822 38.9403C89.8904 39.0256 89.6674 39.0682 89.4132 39.0682C89.0794 39.0682 88.8031 38.9957 88.5843 38.8509C88.3656 38.706 88.2271 38.4943 88.1689 38.2159L88.6461 38.0966C88.6916 38.2727 88.7775 38.4048 88.9039 38.4929C89.0318 38.581 89.1987 38.625 89.4047 38.625C89.639 38.625 89.8251 38.5753 89.9629 38.4759C90.1021 38.375 90.1717 38.2543 90.1717 38.1136C90.1717 38 90.1319 37.9048 90.0524 37.8281C89.9728 37.75 89.8507 37.6918 89.6859 37.6534L89.1404 37.5256C88.8407 37.4545 88.6206 37.3445 88.4799 37.1953C88.3407 37.0447 88.2711 36.8565 88.2711 36.6307C88.2711 36.446 88.323 36.2827 88.4267 36.1406C88.5318 35.9986 88.6745 35.8871 88.8549 35.8061C89.0368 35.7251 89.2427 35.6847 89.4728 35.6847C89.7967 35.6847 90.051 35.7557 90.2356 35.8977C90.4217 36.0398 90.5538 36.2273 90.6319 36.4602ZM91.4485 39V35.7273H91.9513V39H91.4485ZM91.7042 35.1818C91.6062 35.1818 91.5217 35.1484 91.4506 35.0817C91.381 35.0149 91.3462 34.9347 91.3462 34.8409C91.3462 34.7472 91.381 34.6669 91.4506 34.6001C91.5217 34.5334 91.6062 34.5 91.7042 34.5C91.8022 34.5 91.886 34.5334 91.9556 34.6001C92.0266 34.6669 92.0621 34.7472 92.0621 34.8409C92.0621 34.9347 92.0266 35.0149 91.9556 35.0817C91.886 35.1484 91.8022 35.1818 91.7042 35.1818ZM94.2956 35.7273V36.1534H92.5996V35.7273H94.2956ZM93.0939 34.9432H93.5968V38.0625C93.5968 38.2045 93.6174 38.3111 93.6586 38.3821C93.7012 38.4517 93.7551 38.4986 93.8205 38.5227C93.8873 38.5455 93.9576 38.5568 94.0314 38.5568C94.0868 38.5568 94.1323 38.554 94.1678 38.5483C94.2033 38.5412 94.2317 38.5355 94.253 38.5312L94.3553 38.983C94.3212 38.9957 94.2736 39.0085 94.2125 39.0213C94.1515 39.0355 94.074 39.0426 93.9803 39.0426C93.8382 39.0426 93.699 39.0121 93.5627 38.951C93.4277 38.8899 93.3155 38.7969 93.226 38.6719C93.138 38.5469 93.0939 38.3892 93.0939 38.1989V34.9432ZM95.052 39V35.7273H95.5549V39H95.052ZM95.3077 35.1818C95.2097 35.1818 95.1252 35.1484 95.0542 35.0817C94.9846 35.0149 94.9498 34.9347 94.9498 34.8409C94.9498 34.7472 94.9846 34.6669 95.0542 34.6001C95.1252 34.5334 95.2097 34.5 95.3077 34.5C95.4057 34.5 95.4895 34.5334 95.5591 34.6001C95.6301 34.6669 95.6657 34.7472 95.6657 34.8409C95.6657 34.9347 95.6301 35.0149 95.5591 35.0817C95.4895 35.1484 95.4057 35.1818 95.3077 35.1818ZM99.152 35.7273L97.9418 39H97.4304L96.2202 35.7273H96.7656L97.669 38.3352H97.7031L98.6065 35.7273H99.152ZM101.071 39.0682C100.755 39.0682 100.483 38.9986 100.255 38.8594C100.027 38.7188 99.8519 38.5227 99.7283 38.2713C99.6062 38.0185 99.5451 37.7244 99.5451 37.3892C99.5451 37.054 99.6062 36.7585 99.7283 36.5028C99.8519 36.2457 100.024 36.0455 100.244 35.902C100.466 35.7571 100.724 35.6847 101.02 35.6847C101.19 35.6847 101.358 35.7131 101.525 35.7699C101.691 35.8267 101.842 35.919 101.978 36.0469C102.115 36.1733 102.223 36.3409 102.304 36.5497C102.385 36.7585 102.426 37.0156 102.426 37.321V37.5341H99.9031V37.0994H101.914C101.914 36.9148 101.877 36.75 101.804 36.6051C101.731 36.4602 101.627 36.3459 101.493 36.2621C101.359 36.1783 101.201 36.1364 101.02 36.1364C100.819 36.1364 100.646 36.1861 100.5 36.2855C100.355 36.3835 100.243 36.5114 100.165 36.669C100.087 36.8267 100.048 36.9957 100.048 37.1761V37.4659C100.048 37.7131 100.091 37.9226 100.176 38.0945C100.262 38.2649 100.382 38.3949 100.536 38.4844C100.689 38.5724 100.868 38.6165 101.071 38.6165C101.203 38.6165 101.322 38.598 101.429 38.5611C101.537 38.5227 101.63 38.4659 101.708 38.3906C101.786 38.3139 101.846 38.2187 101.889 38.1051L102.375 38.2415C102.324 38.4062 102.238 38.5511 102.117 38.6761C101.996 38.7997 101.847 38.8963 101.669 38.9659C101.492 39.0341 101.292 39.0682 101.071 39.0682ZM104.946 39V34.6364H106.421C106.763 34.6364 107.043 34.6982 107.26 34.8217C107.479 34.9439 107.641 35.1094 107.746 35.3182C107.851 35.527 107.904 35.7599 107.904 36.017C107.904 36.2741 107.851 36.5078 107.746 36.718C107.642 36.9283 107.482 37.0959 107.265 37.2209C107.047 37.3445 106.769 37.4062 106.429 37.4062H105.373V36.9375H106.412C106.647 36.9375 106.835 36.897 106.977 36.8161C107.119 36.7351 107.222 36.6257 107.286 36.4879C107.351 36.3487 107.384 36.1918 107.384 36.017C107.384 35.8423 107.351 35.6861 107.286 35.5483C107.222 35.4105 107.118 35.3026 106.975 35.2244C106.831 35.1449 106.641 35.1051 106.404 35.1051H105.475V39H104.946ZM110.024 39.0682C109.708 39.0682 109.436 38.9986 109.208 38.8594C108.98 38.7188 108.805 38.5227 108.681 38.2713C108.559 38.0185 108.498 37.7244 108.498 37.3892C108.498 37.054 108.559 36.7585 108.681 36.5028C108.805 36.2457 108.977 36.0455 109.197 35.902C109.419 35.7571 109.677 35.6847 109.973 35.6847C110.143 35.6847 110.311 35.7131 110.478 35.7699C110.644 35.8267 110.795 35.919 110.931 36.0469C111.068 36.1733 111.176 36.3409 111.257 36.5497C111.338 36.7585 111.379 37.0156 111.379 37.321V37.5341H108.856V37.0994H110.868C110.868 36.9148 110.831 36.75 110.757 36.6051C110.684 36.4602 110.581 36.3459 110.446 36.2621C110.312 36.1783 110.154 36.1364 109.973 36.1364C109.772 36.1364 109.599 36.1861 109.453 36.2855C109.308 36.3835 109.196 36.5114 109.118 36.669C109.04 36.8267 109.001 36.9957 109.001 37.1761V37.4659C109.001 37.7131 109.044 37.9226 109.129 38.0945C109.216 38.2649 109.336 38.3949 109.489 38.4844C109.642 38.5724 109.821 38.6165 110.024 38.6165C110.156 38.6165 110.275 38.598 110.382 38.5611C110.49 38.5227 110.583 38.4659 110.661 38.3906C110.739 38.3139 110.799 38.2187 110.842 38.1051L111.328 38.2415C111.277 38.4062 111.191 38.5511 111.07 38.6761C110.949 38.7997 110.8 38.8963 110.623 38.9659C110.445 39.0341 110.245 39.0682 110.024 39.0682ZM113.473 39.0682C113.178 39.0682 112.919 38.9979 112.696 38.8572C112.474 38.7166 112.301 38.5199 112.176 38.267C112.052 38.0142 111.99 37.7187 111.99 37.3807C111.99 37.0398 112.052 36.7422 112.176 36.4879C112.301 36.2337 112.474 36.0362 112.696 35.8956C112.919 35.755 113.178 35.6847 113.473 35.6847C113.769 35.6847 114.027 35.755 114.249 35.8956C114.472 36.0362 114.645 36.2337 114.769 36.4879C114.894 36.7422 114.956 37.0398 114.956 37.3807C114.956 37.7187 114.894 38.0142 114.769 38.267C114.645 38.5199 114.472 38.7166 114.249 38.8572C114.027 38.9979 113.769 39.0682 113.473 39.0682ZM113.473 38.6165C113.698 38.6165 113.882 38.5589 114.027 38.4439C114.172 38.3288 114.279 38.1776 114.349 37.9901C114.419 37.8026 114.453 37.5994 114.453 37.3807C114.453 37.1619 114.419 36.9581 114.349 36.7692C114.279 36.5803 114.172 36.4276 114.027 36.3111C113.882 36.1946 113.698 36.1364 113.473 36.1364C113.249 36.1364 113.064 36.1946 112.919 36.3111C112.775 36.4276 112.667 36.5803 112.598 36.7692C112.528 36.9581 112.493 37.1619 112.493 37.3807C112.493 37.5994 112.528 37.8026 112.598 37.9901C112.667 38.1776 112.775 38.3288 112.919 38.4439C113.064 38.5589 113.249 38.6165 113.473 38.6165ZM115.724 40.2273V35.7273H116.21V36.2472H116.269C116.306 36.1903 116.357 36.1179 116.423 36.0298C116.49 35.9403 116.585 35.8608 116.708 35.7912C116.833 35.7202 117.002 35.6847 117.215 35.6847C117.491 35.6847 117.734 35.7536 117.944 35.8913C118.154 36.0291 118.318 36.2244 118.436 36.4773C118.554 36.7301 118.613 37.0284 118.613 37.3722C118.613 37.7188 118.554 38.0192 118.436 38.2734C118.318 38.5263 118.155 38.7223 117.946 38.8615C117.737 38.9993 117.497 39.0682 117.224 39.0682C117.014 39.0682 116.845 39.0334 116.719 38.9638C116.593 38.8928 116.495 38.8125 116.427 38.723C116.359 38.6321 116.306 38.5568 116.269 38.4972H116.227V40.2273H115.724ZM116.218 37.3636C116.218 37.6108 116.254 37.8288 116.327 38.0178C116.399 38.2053 116.505 38.3523 116.644 38.4588C116.784 38.5639 116.954 38.6165 117.156 38.6165C117.366 38.6165 117.541 38.5611 117.682 38.4503C117.824 38.3381 117.931 38.1875 118.002 37.9986C118.074 37.8082 118.11 37.5966 118.11 37.3636C118.11 37.1335 118.075 36.9261 118.004 36.7415C117.934 36.5554 117.828 36.4084 117.686 36.3004C117.546 36.1911 117.369 36.1364 117.156 36.1364C116.951 36.1364 116.779 36.1882 116.64 36.2919C116.501 36.3942 116.396 36.5376 116.325 36.7223C116.254 36.9055 116.218 37.1193 116.218 37.3636ZM119.883 34.6364V39H119.38V34.6364H119.883ZM122.176 39.0682C121.861 39.0682 121.589 38.9986 121.36 38.8594C121.133 38.7188 120.957 38.5227 120.834 38.2713C120.712 38.0185 120.651 37.7244 120.651 37.3892C120.651 37.054 120.712 36.7585 120.834 36.5028C120.957 36.2457 121.129 36.0455 121.349 35.902C121.571 35.7571 121.83 35.6847 122.125 35.6847C122.295 35.6847 122.464 35.7131 122.63 35.7699C122.796 35.8267 122.947 35.919 123.084 36.0469C123.22 36.1733 123.329 36.3409 123.41 36.5497C123.491 36.7585 123.531 37.0156 123.531 37.321V37.5341H121.009V37.0994H123.02C123.02 36.9148 122.983 36.75 122.909 36.6051C122.837 36.4602 122.733 36.3459 122.598 36.2621C122.464 36.1783 122.307 36.1364 122.125 36.1364C121.925 36.1364 121.751 36.1861 121.605 36.2855C121.46 36.3835 121.349 36.5114 121.271 36.669C121.192 36.8267 121.153 36.9957 121.153 37.1761V37.4659C121.153 37.7131 121.196 37.9226 121.281 38.0945C121.368 38.2649 121.488 38.3949 121.641 38.4844C121.795 38.5724 121.973 38.6165 122.176 38.6165C122.308 38.6165 122.428 38.598 122.534 38.5611C122.642 38.5227 122.735 38.4659 122.813 38.3906C122.891 38.3139 122.952 38.2187 122.994 38.1051L123.48 38.2415C123.429 38.4062 123.343 38.5511 123.222 38.6761C123.102 38.7997 122.952 38.8963 122.775 38.9659C122.597 39.0341 122.398 39.0682 122.176 39.0682ZM129.734 36.8182C129.734 37.2784 129.651 37.6761 129.484 38.0114C129.318 38.3466 129.09 38.6051 128.8 38.7869C128.511 38.9688 128.18 39.0597 127.808 39.0597C127.435 39.0597 127.104 38.9688 126.815 38.7869C126.525 38.6051 126.297 38.3466 126.131 38.0114C125.964 37.6761 125.881 37.2784 125.881 36.8182C125.881 36.358 125.964 35.9602 126.131 35.625C126.297 35.2898 126.525 35.0312 126.815 34.8494C127.104 34.6676 127.435 34.5767 127.808 34.5767C128.18 34.5767 128.511 34.6676 128.8 34.8494C129.09 35.0312 129.318 35.2898 129.484 35.625C129.651 35.9602 129.734 36.358 129.734 36.8182ZM129.222 36.8182C129.222 36.4403 129.159 36.1214 129.033 35.8615C128.908 35.6016 128.738 35.4048 128.523 35.2713C128.31 35.1378 128.072 35.071 127.808 35.071C127.543 35.071 127.304 35.1378 127.089 35.2713C126.876 35.4048 126.707 35.6016 126.58 35.8615C126.455 36.1214 126.393 36.4403 126.393 36.8182C126.393 37.196 126.455 37.5149 126.58 37.7749C126.707 38.0348 126.876 38.2315 127.089 38.3651C127.304 38.4986 127.543 38.5653 127.808 38.5653C128.072 38.5653 128.31 38.4986 128.523 38.3651C128.738 38.2315 128.908 38.0348 129.033 37.7749C129.159 37.5149 129.222 37.196 129.222 36.8182ZM131.057 37.0312V39H130.554V35.7273H131.04V36.2386H131.082C131.159 36.0724 131.276 35.9389 131.432 35.8381C131.588 35.7358 131.79 35.6847 132.037 35.6847C132.259 35.6847 132.452 35.7301 132.619 35.821C132.785 35.9105 132.914 36.0469 133.006 36.2301C133.099 36.4119 133.145 36.642 133.145 36.9205V39H132.642V36.9545C132.642 36.6974 132.575 36.4972 132.442 36.3537C132.308 36.2088 132.125 36.1364 131.892 36.1364C131.732 36.1364 131.588 36.1712 131.462 36.2408C131.337 36.3104 131.238 36.4119 131.165 36.5455C131.093 36.679 131.057 36.8409 131.057 37.0312ZM134.567 34.6364V39H134.064V34.6364H134.567ZM135.811 40.2273C135.726 40.2273 135.65 40.2202 135.583 40.206C135.517 40.1932 135.471 40.1804 135.445 40.1676L135.573 39.7244C135.695 39.7557 135.803 39.767 135.897 39.7585C135.99 39.75 136.074 39.7081 136.146 39.6328C136.22 39.5589 136.287 39.4389 136.348 39.2727L136.442 39.017L135.232 35.7273H135.777L136.681 38.3352H136.715L137.618 35.7273H138.164L136.775 39.4773C136.712 39.6463 136.635 39.7862 136.542 39.897C136.45 40.0092 136.343 40.0923 136.221 40.1463C136.1 40.2003 135.963 40.2273 135.811 40.2273Z" fill="black"/>
</svg>
